<svg xmlns="http://www.w3.org/2000/svg" xmlns:xlink="http://www.w3.org/1999/xlink" width="22.34515380859375" height="22.3360595703125" viewBox="0 0 22.34515380859375 22.3360595703125" fill="none"><path d="M12.9024 11.1679L22.0006 2.07001C22.46 1.61061 22.46 0.853636 22.0006 0.394242L21.9509 0.344545C21.4915 -0.114848 20.7345 -0.114848 20.2751 0.344545L11.177 9.45513L2.07909 0.344545C1.61969 -0.114848 0.862727 -0.114848 0.403334 0.344545L0.353637 0.394242C-0.117879 0.853636 -0.117879 1.61061 0.353637 2.07001L9.45183 11.1682L0.353637 20.2661C-0.105455 20.7255 -0.105455 21.4824 0.353637 21.9418L0.403334 21.9915C0.862727 22.4509 1.61969 22.4509 2.07909 21.9915L11.177 12.8933L20.2751 21.9912C20.7345 22.4506 21.4915 22.4506 21.9509 21.9912L22.0006 21.9415C22.46 21.4821 22.46 20.7251 22.0006 20.2657L12.9024 11.1679Z"   fill="#FFFFFF" ></path></svg>