<svg xmlns="http://www.w3.org/2000/svg" xmlns:xlink="http://www.w3.org/1999/xlink" width="32" height="24.6153564453125" viewBox="0 0 32 24.6153564453125" fill="none"><path d="M27.2 8.57756C27.3573 8.57756 27.5141 8.58443 27.6706 8.59815C27.8269 8.61197 27.9822 8.63256 28.1365 8.65991C28.2906 8.68736 28.4429 8.72148 28.5934 8.76227C28.7438 8.80305 28.8917 8.85033 29.0368 8.90408C29.1821 8.95784 29.324 9.01778 29.4627 9.08393C29.6014 9.15016 29.736 9.22231 29.8667 9.30037C29.9974 9.37842 30.1237 9.46201 30.2451 9.55112C30.3666 9.64022 30.4829 9.73443 30.5941 9.83375C30.7053 9.93306 30.8107 10.037 30.9104 10.1455C31.0101 10.2541 31.1037 10.3668 31.191 10.4836C31.2784 10.6004 31.3592 10.7207 31.4333 10.8446C31.5074 10.9685 31.5744 11.0953 31.6346 11.225C31.6947 11.3548 31.7477 11.4869 31.7933 11.6213C31.8389 11.7558 31.8771 11.8919 31.9078 12.0296C31.9384 12.1674 31.9614 12.3062 31.977 12.4459C31.9923 12.5857 32 12.7259 32 12.8663L32 17.1551C32 17.2957 31.9923 17.4358 31.977 17.5756C31.9614 17.7152 31.9384 17.8541 31.9078 17.9919C31.8771 18.1295 31.8389 18.2656 31.7933 18.4002C31.7477 18.5345 31.6947 18.6666 31.6346 18.7963C31.5744 18.9261 31.5074 19.0529 31.4333 19.1769C31.3592 19.3008 31.2784 19.421 31.191 19.5378C31.1037 19.6546 31.0101 19.7674 30.9104 19.8759C30.8107 19.9844 30.7053 20.0884 30.5941 20.1877C30.4829 20.2871 30.3666 20.3813 30.2451 20.4704C30.1237 20.5594 29.9974 20.6431 29.8667 20.7211C29.736 20.7992 29.6014 20.8714 29.4627 20.9375C29.324 21.0037 29.1821 21.0636 29.0368 21.1174C28.8917 21.1711 28.7438 21.2185 28.5934 21.2592C28.4429 21.2999 28.2906 21.3341 28.1365 21.3616C27.9822 21.3889 27.8269 21.4095 27.6706 21.4233C27.5141 21.437 27.3573 21.4439 27.2 21.4439L27.2 22.8249C27.2 24.3403 25.2224 25.168 23.92 24.1973L20.2208 21.4439L16 21.4439C15.8428 21.4439 15.6859 21.437 15.5294 21.4233C15.3731 21.4095 15.2178 21.3889 15.0635 21.3616C14.9094 21.3341 14.7571 21.2999 14.6066 21.2592C14.4562 21.2185 14.3083 21.1711 14.163 21.1174C14.0179 21.0636 13.876 21.0037 13.7373 20.9375C13.5986 20.8714 13.464 20.7992 13.3333 20.7211C13.2025 20.6431 13.0764 20.5594 12.9549 20.4704C12.8334 20.3813 12.717 20.2871 12.6059 20.1877C12.4947 20.0884 12.3893 19.9844 12.2896 19.8759C12.1898 19.7674 12.0963 19.6546 12.0089 19.5378C11.9216 19.421 11.8409 19.3008 11.7668 19.1769C11.6927 19.0529 11.6255 18.9261 11.5654 18.7963C11.5052 18.6666 11.4523 18.5345 11.4067 18.4002C11.3611 18.2656 11.3229 18.1295 11.2922 17.9919C11.2616 17.8541 11.2385 17.7152 11.2231 17.5756C11.2077 17.4358 11.2 17.2957 11.2 17.1551L11.2 12.8663C11.2 12.7259 11.2077 12.5857 11.2231 12.4459C11.2385 12.3062 11.2616 12.1674 11.2922 12.0296C11.3229 11.8919 11.3611 11.7558 11.4067 11.6213C11.4523 11.4869 11.5052 11.3548 11.5654 11.225C11.6255 11.0953 11.6927 10.9685 11.7668 10.8446C11.8409 10.7207 11.9216 10.6004 12.0089 10.4836C12.0963 10.3668 12.1898 10.2541 12.2896 10.1455C12.3893 10.037 12.4947 9.93306 12.6059 9.83375C12.717 9.73443 12.8334 9.64022 12.9549 9.55112C13.0764 9.46201 13.2025 9.37842 13.3333 9.30037C13.464 9.22231 13.5986 9.15016 13.7373 9.08393C13.876 9.01778 14.0179 8.95784 14.163 8.90408C14.3083 8.85033 14.4562 8.80305 14.6066 8.76227C14.7571 8.72148 14.9094 8.68736 15.0635 8.65991C15.2178 8.63256 15.3731 8.61197 15.5294 8.59815C15.6859 8.58443 15.8428 8.57756 16 8.57756L27.2 8.57756ZM22.4 0C22.5573 0 22.7141 0.00688568 22.8706 0.0206578C23.0269 0.0344196 23.1822 0.0550009 23.3365 0.0824019C23.4906 0.109812 23.6429 0.143903 23.7934 0.184675C23.9438 0.225447 24.0917 0.272709 24.2368 0.326462C24.3821 0.380215 24.524 0.440201 24.6627 0.506419C24.8014 0.572628 24.936 0.644753 25.0667 0.722788C25.1974 0.800826 25.3237 0.8844 25.4451 0.973511C25.5666 1.06262 25.6829 1.15684 25.7941 1.25616C25.9053 1.35547 26.0107 1.45943 26.1104 1.56801C26.2101 1.67658 26.3037 1.78928 26.391 1.90606C26.4784 2.02285 26.5592 2.14319 26.6333 2.26706C26.7074 2.39094 26.7744 2.51777 26.8346 2.64754C26.8947 2.7773 26.9477 2.9094 26.9933 3.04382C27.0389 3.17823 27.0771 3.31431 27.1078 3.45208C27.1384 3.58985 27.1614 3.72862 27.177 3.86841C27.1923 4.0082 27.2 4.14832 27.2 4.28878L27.2 5.71838L14.4 5.71838C14.1904 5.71838 13.9813 5.72755 13.7726 5.74591C13.5641 5.76427 13.357 5.79171 13.1514 5.82825C12.9458 5.86479 12.7428 5.91024 12.5422 5.96461C12.3416 6.01898 12.1445 6.08199 11.9508 6.15366C11.7572 6.22532 11.5679 6.30531 11.3831 6.39359C11.1982 6.48188 11.0186 6.57805 10.8444 6.68209C10.6701 6.78614 10.5019 6.89758 10.3399 7.01639C10.1779 7.1352 10.0227 7.26082 9.87451 7.39325C9.7263 7.52567 9.58571 7.66428 9.45274 7.80906C9.31976 7.95383 9.19506 8.10407 9.07859 8.25979C8.96214 8.41552 8.85451 8.57595 8.7557 8.74111C8.6569 8.90627 8.56738 9.07539 8.48717 9.24847C8.40696 9.42145 8.33643 9.59758 8.27558 9.77685C8.21474 9.95602 8.16387 10.1374 8.12298 10.3211C8.08208 10.5048 8.05136 10.6899 8.03082 10.8762C8.01027 11.0626 8 11.2495 8 11.4368L8 17.1551C8 18.6476 8.64 20.0086 9.6896 21.0265L8 22.1587C6.6816 23.0422 4.8 22.2016 4.8 20.7291L4.8 18.5847C4.6428 18.5847 4.48597 18.5779 4.32952 18.5641C4.17307 18.5503 4.01776 18.5297 3.86357 18.5024C3.70938 18.4749 3.55707 18.4408 3.40664 18.4C3.25619 18.3593 3.10835 18.312 2.96312 18.2582C2.81789 18.2044 2.67594 18.1445 2.5373 18.0784C2.39866 18.0122 2.26397 17.94 2.13326 17.8619C2.00256 17.7839 1.87643 17.7002 1.75491 17.6112C1.63339 17.5221 1.51704 17.4279 1.40589 17.3285C1.29473 17.2292 1.18928 17.1252 1.08955 17.0167C0.989819 16.9082 0.896283 16.7954 0.808944 16.6786C0.721605 16.5618 0.640885 16.4416 0.566784 16.3177C0.492672 16.1937 0.425536 16.0669 0.365376 15.9371C0.305216 15.8074 0.25232 15.6754 0.206688 15.541C0.161056 15.4064 0.122901 15.2704 0.0922242 15.1327C0.0615574 14.9949 0.0385227 14.8561 0.0231202 14.7164C0.00770683 14.5766 0 14.4365 0 14.2959L0 4.28878C0 4.14832 0.00770683 4.0082 0.0231202 3.86841C0.0385227 3.72862 0.0615574 3.58985 0.0922242 3.45208C0.122901 3.31431 0.161056 3.17823 0.206688 3.04382C0.25232 2.9094 0.305216 2.7773 0.365376 2.64754C0.425536 2.51777 0.492672 2.39094 0.566784 2.26706C0.640885 2.14319 0.721605 2.02285 0.808944 1.90606C0.896283 1.78928 0.989819 1.67658 1.08955 1.56801C1.18928 1.45943 1.29473 1.35547 1.40589 1.25616C1.51704 1.15684 1.63339 1.06262 1.75491 0.973511C1.87643 0.8844 2.00256 0.800826 2.13326 0.722788C2.26397 0.644753 2.39866 0.572628 2.5373 0.506419C2.67594 0.440201 2.81789 0.380215 2.96312 0.326462C3.10835 0.272709 3.25619 0.225447 3.40664 0.184675C3.55707 0.143903 3.70938 0.109812 3.86357 0.0824019C4.01776 0.0550009 4.17307 0.0344196 4.32952 0.0206578C4.48597 0.00688568 4.6428 0 4.8 0L22.4 0Z"   fill="#FFFFFF" ></path></svg>