<svg xmlns="http://www.w3.org/2000/svg" xmlns:xlink="http://www.w3.org/1999/xlink" width="30.195281982421875" height="26.953125" viewBox="0 0 30.195281982421875 26.953125" fill="none"><path d="M14.6186 10.1699C17.6372 10.1433 20.8523 12.7948 24.2648 18.1255C24.3078 18.1928 24.3494 18.261 24.3894 18.3301C24.4294 18.3992 24.4679 18.4691 24.5048 18.5399C24.5417 18.6107 24.577 18.6824 24.6107 18.7548C24.6444 18.8272 24.6765 18.9003 24.707 18.9741C24.7374 19.0479 24.7662 19.1224 24.7933 19.1975C24.8205 19.2726 24.8459 19.3483 24.8697 19.4245C24.8934 19.5008 24.9155 19.5775 24.9358 19.6547C24.9562 19.7319 24.9748 19.8096 24.9917 19.8877C25.0086 19.9657 25.0237 20.0441 25.0371 20.1228C25.0505 20.2016 25.0621 20.2805 25.072 20.3598C25.0818 20.439 25.0899 20.5185 25.0962 20.5981C25.1026 20.6777 25.1071 20.7574 25.1099 20.8372C25.1127 20.917 25.1137 20.9968 25.1129 21.0767C25.1121 21.1566 25.1096 21.2363 25.1052 21.3161C25.1009 21.3958 25.0948 21.4754 25.0869 21.5549C25.079 21.6344 25.0693 21.7136 25.0579 21.7927C25.0465 21.8717 25.0333 21.9505 25.0184 22.0289C25.0035 22.1073 24.9868 22.1854 24.9684 22.2632C24.95 22.3409 24.9299 22.4181 24.9081 22.4949C24.8862 22.5717 24.8627 22.648 24.8374 22.7238C24.8122 22.7996 24.7852 22.8747 24.7566 22.9493C24.728 23.0239 24.6978 23.0977 24.6659 23.171C24.634 23.2442 24.6005 23.3167 24.5654 23.3884C24.5303 23.4601 24.4936 23.531 24.4553 23.6011C24.417 23.6712 24.3772 23.7404 24.3358 23.8087C24.2945 23.877 24.2516 23.9443 24.2072 24.0107C24.1629 24.0772 24.117 24.1425 24.0697 24.2069C24.0225 24.2712 23.9738 24.3345 23.9237 24.3967C23.8736 24.4589 23.8221 24.5199 23.7693 24.5798C23.7165 24.6397 23.6624 24.6984 23.6069 24.7559C23.5515 24.8134 23.4948 24.8696 23.4369 24.9246C23.3789 24.9796 23.3198 25.0332 23.2595 25.0855L22.4257 25.8073C22.3809 25.8461 22.3354 25.8839 22.2891 25.9208C22.2428 25.9577 22.1957 25.9937 22.148 26.0287C22.1002 26.0636 22.0517 26.0976 22.0025 26.1305C21.9533 26.1635 21.9035 26.1954 21.8529 26.2263C21.8024 26.2572 21.7513 26.2871 21.6996 26.3159C21.6478 26.3447 21.5955 26.3723 21.5426 26.399C21.4897 26.4256 21.4363 26.4511 21.3823 26.4755C21.3284 26.4999 21.274 26.5232 21.2191 26.5454C21.1642 26.5676 21.1088 26.5886 21.053 26.6085C20.9972 26.6284 20.9411 26.6471 20.8845 26.6647C20.828 26.6822 20.7711 26.6986 20.7139 26.7138C20.6567 26.729 20.5991 26.743 20.5413 26.7558C20.4835 26.7687 20.4254 26.7803 20.3672 26.7907C20.3089 26.8012 20.2504 26.8104 20.1917 26.8184C20.1331 26.8264 20.0742 26.8332 20.0153 26.8388C19.9563 26.8444 19.8973 26.8487 19.8382 26.8519C19.779 26.855 19.7199 26.8569 19.6607 26.8576C19.6014 26.8583 19.5422 26.8578 19.4831 26.856C19.4239 26.8543 19.3647 26.8513 19.3057 26.8471C19.2466 26.8429 19.1877 26.8375 19.1288 26.8309C19.07 26.8242 19.0113 26.8164 18.9528 26.8073C18.8942 26.7983 18.836 26.788 18.7779 26.7766C18.7198 26.7651 18.6619 26.7524 18.6044 26.7386C18.5468 26.7247 18.4896 26.7097 18.4326 26.6934C18.3757 26.6772 18.3191 26.6598 18.2628 26.6412C18.2066 26.6227 18.1508 26.603 18.0954 26.5821C18.04 26.5612 17.985 26.5392 17.9305 26.5161C17.876 26.4929 17.822 26.4687 17.7685 26.4433C17.715 26.4179 17.662 26.3915 17.6096 26.3639C17.5572 26.3363 17.5054 26.3077 17.4542 26.278C17.4029 26.2483 17.3523 26.2175 17.3024 26.1857C17.2524 26.1539 17.2032 26.1211 17.1546 26.0873L16.9555 25.9486C16.9092 25.9164 16.8622 25.885 16.8147 25.8545C16.7672 25.8241 16.7192 25.7945 16.6705 25.7659C16.6219 25.7372 16.5727 25.7095 16.5231 25.6828C16.4734 25.656 16.4232 25.6302 16.3725 25.6053C16.3219 25.5805 16.2707 25.5566 16.2192 25.5337C16.1676 25.5108 16.1156 25.4889 16.0632 25.468C16.0108 25.447 15.958 25.4271 15.9048 25.4082C15.8516 25.3893 15.7981 25.3714 15.7442 25.3545C15.6904 25.3377 15.6362 25.3218 15.5818 25.307C15.5273 25.2922 15.4726 25.2784 15.4176 25.2657C15.3627 25.2529 15.3074 25.2413 15.252 25.2307C15.1966 25.22 15.141 25.2104 15.0852 25.2019C15.0294 25.1934 14.9735 25.186 14.9174 25.1796C14.8613 25.1732 14.8052 25.1679 14.7489 25.1637C14.6926 25.1595 14.6363 25.1563 14.5799 25.1542C14.5235 25.1521 14.4671 25.1511 14.4106 25.1512C14.3542 25.1512 14.2978 25.1523 14.2414 25.1546C14.185 25.1567 14.1287 25.1601 14.0724 25.1644C14.0161 25.1687 13.96 25.1742 13.9039 25.1807C13.8478 25.1872 13.7919 25.1947 13.7362 25.2034C13.6804 25.212 13.6248 25.2217 13.5694 25.2324C13.514 25.2432 13.4588 25.2549 13.4038 25.2678C13.3489 25.2806 13.2942 25.2945 13.2398 25.3094C13.1853 25.3244 13.1312 25.3403 13.0774 25.3573C13.0236 25.3743 12.9701 25.3923 12.917 25.4113C12.8638 25.4303 12.8111 25.4504 12.7587 25.4714C12.7064 25.4924 12.6544 25.5145 12.6029 25.5375C12.5513 25.5605 12.5003 25.5845 12.4497 25.6095C12.3991 25.6344 12.3489 25.6603 12.2993 25.6872C12.2497 25.7141 12.2006 25.7419 12.152 25.7706C12.1034 25.7993 12.0554 25.829 12.008 25.8596C11.9605 25.8901 11.9137 25.9216 11.8675 25.9539L11.5581 26.1708C11.5081 26.2059 11.4573 26.2398 11.4058 26.2727C11.3544 26.3056 11.3022 26.3374 11.2494 26.3681C11.1966 26.3987 11.1431 26.4283 11.0891 26.4567C11.035 26.4851 10.9803 26.5124 10.9251 26.5385C10.8699 26.5646 10.8141 26.5895 10.7578 26.6132C10.7015 26.637 10.6448 26.6595 10.5875 26.6808C10.5303 26.7022 10.4726 26.7222 10.4145 26.7412C10.3564 26.76 10.298 26.7777 10.2392 26.7941C10.1803 26.8105 10.1211 26.8257 10.0617 26.8396C10.0022 26.8535 9.94244 26.8661 9.88241 26.8775C9.82237 26.8889 9.76216 26.899 9.70172 26.9078C9.64128 26.9166 9.58069 26.9241 9.51991 26.9304C9.45912 26.9366 9.39825 26.9416 9.33728 26.9453C9.27631 26.9489 9.21531 26.9513 9.15422 26.9524C9.09312 26.9535 9.03206 26.9533 8.971 26.9518C8.90994 26.9503 8.84894 26.9475 8.78797 26.9434C8.72703 26.9393 8.66619 26.934 8.60547 26.9273C8.54475 26.9207 8.48422 26.9127 8.42381 26.9035C8.36344 26.8942 8.30328 26.8837 8.24334 26.872C8.18341 26.8602 8.12375 26.8472 8.06434 26.8328C8.00497 26.8185 7.94591 26.803 7.88719 26.7862C7.82847 26.7694 7.77009 26.7513 7.71212 26.7321C7.65416 26.7128 7.59666 26.6923 7.53956 26.6706C7.48247 26.6488 7.42584 26.6259 7.36972 26.6018C7.31359 26.5777 7.258 26.5524 7.20297 26.526C7.14791 26.4995 7.09344 26.4718 7.03956 26.4431C6.98566 26.4143 6.93241 26.3844 6.87981 26.3534C6.82719 26.3223 6.77525 26.2902 6.724 26.257C6.67275 26.2237 6.62222 26.1894 6.57241 26.1541C6.52262 26.1187 6.47359 26.0823 6.42531 26.0448C6.37706 26.0074 6.32962 25.9689 6.283 25.9295C6.23637 25.89 6.19059 25.8496 6.14569 25.8082L5.56078 25.2686C5.50409 25.2164 5.44856 25.1629 5.39422 25.1082C5.33984 25.0536 5.28669 24.9977 5.23478 24.9407C5.18287 24.8837 5.13222 24.8256 5.08281 24.7664C5.03344 24.7072 4.98537 24.647 4.93862 24.5857C4.89184 24.5244 4.84647 24.4621 4.80244 24.3988C4.75841 24.3355 4.71575 24.2713 4.67453 24.2062C4.63331 24.141 4.59353 24.075 4.55519 24.0081C4.51684 23.9412 4.47997 23.8735 4.44456 23.805C4.40919 23.7365 4.37531 23.6673 4.34294 23.5973C4.31059 23.5273 4.27975 23.4567 4.25047 23.3854C4.22119 23.3141 4.1935 23.2421 4.16734 23.1696C4.14119 23.0971 4.11666 23.024 4.09372 22.9504C4.07075 22.8768 4.04944 22.8027 4.02972 22.7282C4.01 22.6537 3.99194 22.5787 3.9755 22.5034C3.95906 22.4281 3.94428 22.3524 3.93112 22.2765C3.918 22.2005 3.90653 22.1243 3.89672 22.0478C3.88691 21.9713 3.87878 21.8947 3.87231 21.8178C3.86584 21.741 3.86106 21.6641 3.85797 21.5871C3.85487 21.51 3.85344 21.4329 3.85372 21.3559C3.854 21.2787 3.85594 21.2017 3.85956 21.1247C3.86319 21.0477 3.8685 20.9708 3.8755 20.894C3.88247 20.8172 3.89112 20.7407 3.90147 20.6642C3.91181 20.5878 3.92381 20.5117 3.93747 20.4358C3.95112 20.3599 3.96641 20.2844 3.98337 20.2092C4.00034 20.134 4.01894 20.0592 4.03916 19.9848C4.05937 19.9104 4.08122 19.8364 4.10469 19.763C4.12816 19.6896 4.15319 19.6167 4.17981 19.5443C4.20647 19.4719 4.23466 19.4002 4.26444 19.3291C4.29422 19.258 4.3255 19.1876 4.35834 19.1178C4.39119 19.0481 4.42556 18.9791 4.46141 18.9108C4.49725 18.8426 4.53459 18.7751 4.57341 18.7085C4.61222 18.6419 4.65247 18.5762 4.69412 18.5113C8.24969 12.9771 11.5572 10.1966 14.6177 10.1699L14.6186 10.1699ZM19.0977 9.92994C16.2141 9.42241 15.5866 6.9175 16.2639 4.33262C16.943 1.74684 18.7955 -0.319831 20.8417 0.0410575C22.8879 0.401931 23.9857 2.48906 23.6746 5.63928C23.3635 8.78862 21.9803 10.4393 19.0968 9.92994L19.0977 9.92994ZM10.6292 9.81794C7.72791 10.2268 6.22834 8.1975 6.22834 5.53619C6.22834 2.87393 7.22125 0.496181 9.27812 0.206392C11.3359 -0.0833866 12.9626 1.89171 13.6799 4.48819C14.3963 7.0855 13.5315 9.41084 10.6292 9.81794ZM25.0852 14.9113C23.0257 13.6899 22.8612 11.6055 23.9759 10.1219C25.0906 8.63841 27.0283 7.75219 28.6248 8.52462C30.2229 9.29706 30.6176 11.6597 29.7341 13.3139C28.8515 14.9682 27.1448 16.1335 25.0852 14.9122L25.0852 14.9113ZM5.92525 14.8348C4.38656 16.3735 2.21234 16.0793 1.0159 14.5806C-0.181434 13.0811 -0.388544 10.7975 0.761678 9.67041C1.911 8.54419 4.047 8.43306 5.671 9.92462C7.29591 11.4162 7.46478 13.2953 5.92525 14.8348Z"   fill="#FFFFFF" ></path></svg>