<svg xmlns="http://www.w3.org/2000/svg" xmlns:xlink="http://www.w3.org/1999/xlink" width="33.96966552734375" height="30.322265625" viewBox="0 0 33.96966552734375 30.322265625" fill="none"><path d="M16.4459 11.4412C19.8419 11.4112 23.4589 14.3942 27.2979 20.3912C27.3463 20.4669 27.393 20.5436 27.4381 20.6213C27.4831 20.699 27.5264 20.7778 27.5679 20.8574C27.6094 20.9371 27.6491 21.0177 27.6871 21.0991C27.725 21.1805 27.7611 21.2628 27.7953 21.3459C27.8296 21.4289 27.862 21.5127 27.8925 21.5972C27.923 21.6817 27.9516 21.7668 27.9784 21.8526C28.0051 21.9384 28.0299 22.0247 28.0528 22.1116C28.0757 22.1984 28.0966 22.2858 28.1156 22.3736C28.1346 22.4614 28.1516 22.5496 28.1667 22.6382C28.1818 22.7268 28.1949 22.8156 28.206 22.9048C28.2171 22.9939 28.2262 23.0833 28.2333 23.1729C28.2404 23.2624 28.2455 23.3521 28.2486 23.4419C28.2518 23.5317 28.2529 23.6214 28.252 23.7113C28.2511 23.8011 28.2483 23.8909 28.2434 23.9806C28.2385 24.0703 28.2316 24.1599 28.2228 24.2493C28.2139 24.3387 28.203 24.4278 28.1902 24.5168C28.1773 24.6057 28.1625 24.6943 28.1457 24.7825C28.1289 24.8708 28.1102 24.9586 28.0895 25.046C28.0688 25.1335 28.0461 25.2204 28.0216 25.3068C27.997 25.3932 27.9705 25.479 27.9421 25.5643C27.9137 25.6495 27.8834 25.7341 27.8512 25.818C27.819 25.9019 27.785 25.985 27.7491 26.0673C27.7132 26.1497 27.6756 26.2312 27.636 26.3119C27.5966 26.3926 27.5553 26.4724 27.5122 26.5512C27.4691 26.63 27.4243 26.7079 27.3778 26.7848C27.3313 26.8616 27.283 26.9374 27.2331 27.0121C27.1832 27.0868 27.1317 27.1603 27.0785 27.2328C27.0253 27.3052 26.9705 27.3763 26.9141 27.4463C26.8578 27.5163 26.7999 27.5849 26.7405 27.6523C26.6811 27.7197 26.6202 27.7857 26.5578 27.8504C26.4954 27.9151 26.4317 27.9783 26.3665 28.0402C26.3013 28.102 26.2348 28.1623 26.1669 28.2212L25.2289 29.0332C25.1786 29.0768 25.1273 29.1194 25.0753 29.1609C25.0232 29.2025 24.9702 29.2429 24.9165 29.2822C24.8627 29.3216 24.8081 29.3598 24.7528 29.3968C24.6975 29.4339 24.6414 29.4698 24.5846 29.5046C24.5277 29.5394 24.4702 29.573 24.412 29.6054C24.3538 29.6377 24.2949 29.6689 24.2354 29.6988C24.1759 29.7288 24.1158 29.7575 24.0551 29.785C23.9945 29.8124 23.9332 29.8387 23.8714 29.8636C23.8097 29.8885 23.7474 29.9122 23.6847 29.9346C23.6219 29.9569 23.5587 29.978 23.4951 29.9977C23.4315 30.0175 23.3675 30.0359 23.3031 30.053C23.2387 30.0701 23.174 30.0859 23.109 30.1003C23.0439 30.1147 22.9786 30.1278 22.913 30.1396C22.8475 30.1513 22.7817 30.1617 22.7157 30.1707C22.6497 30.1797 22.5835 30.1873 22.5172 30.1936C22.4509 30.1999 22.3845 30.2048 22.318 30.2084C22.2514 30.2119 22.1849 30.2141 22.1182 30.2148C22.0516 30.2156 21.985 30.215 21.9184 30.213C21.8519 30.2111 21.7853 30.2077 21.7189 30.203C21.6525 30.1983 21.5861 30.1922 21.5199 30.1847C21.4537 30.1773 21.3877 30.1685 21.3219 30.1583C21.256 30.1481 21.1905 30.1365 21.1251 30.1236C21.0598 30.1107 20.9947 30.0965 20.9299 30.0809C20.8652 30.0653 20.8008 30.0484 20.7367 30.0301C20.6726 30.0118 20.6089 29.9923 20.5457 29.9714C20.4824 29.9505 20.4196 29.9283 20.3573 29.9049C20.295 29.8814 20.2331 29.8566 20.1718 29.8306C20.1105 29.8046 20.0497 29.7773 19.9895 29.7487C19.9293 29.7202 19.8697 29.6904 19.8108 29.6594C19.7518 29.6283 19.6935 29.5961 19.6359 29.5627C19.5783 29.5293 19.5214 29.4947 19.4652 29.4589C19.409 29.4231 19.3535 29.3862 19.2989 29.3482L19.0749 29.1922C19.0228 29.1559 18.97 29.1206 18.9166 29.0863C18.8631 29.0521 18.809 29.0188 18.7543 28.9866C18.6996 28.9544 18.6443 28.9232 18.5884 28.8931C18.5325 28.863 18.4761 28.834 18.4191 28.806C18.3621 28.7781 18.3046 28.7512 18.2465 28.7254C18.1885 28.6997 18.13 28.675 18.0711 28.6515C18.0121 28.6279 17.9527 28.6055 17.8929 28.5842C17.8331 28.5629 17.7729 28.5428 17.7123 28.5238C17.6517 28.5049 17.5908 28.487 17.5295 28.4704C17.4683 28.4537 17.4067 28.4382 17.3448 28.4239C17.283 28.4096 17.2209 28.3964 17.1585 28.3845C17.0962 28.3725 17.0336 28.3617 16.9708 28.3522C16.9081 28.3426 16.8451 28.3342 16.7821 28.3271C16.719 28.3199 16.6558 28.3139 16.5925 28.3092C16.5292 28.3044 16.4658 28.3008 16.4024 28.2985C16.3389 28.2961 16.2754 28.295 16.212 28.2951C16.1485 28.2951 16.085 28.2964 16.0215 28.2989C15.9581 28.3013 15.8947 28.3051 15.8314 28.31C15.7681 28.3148 15.705 28.321 15.6419 28.3283C15.5788 28.3356 15.5159 28.3441 15.4532 28.3538C15.3904 28.3635 15.3279 28.3744 15.2655 28.3865C15.2032 28.3985 15.1412 28.4118 15.0793 28.4263C15.0175 28.4407 14.956 28.4563 14.8948 28.4731C14.8335 28.4899 14.7726 28.5079 14.7121 28.527C14.6515 28.5461 14.5914 28.5663 14.5316 28.5878C14.4718 28.6091 14.4125 28.6317 14.3536 28.6554C14.2947 28.679 14.2362 28.7038 14.1782 28.7297C14.1203 28.7556 14.0628 28.7826 14.0059 28.8106C13.9489 28.8387 13.8926 28.8678 13.8367 28.8981C13.7809 28.9283 13.7256 28.9596 13.671 28.992C13.6164 29.0243 13.5624 29.0576 13.509 29.092C13.4556 29.1264 13.4029 29.1618 13.3509 29.1982L13.0029 29.4422C12.9466 29.4816 12.8895 29.5198 12.8316 29.5568C12.7737 29.5938 12.715 29.6296 12.6556 29.6641C12.5961 29.6986 12.536 29.7318 12.4752 29.7638C12.4143 29.7958 12.3529 29.8264 12.2907 29.8558C12.2286 29.8851 12.1659 29.9132 12.1025 29.9399C12.0392 29.9666 11.9754 29.9919 11.911 30.0159C11.8466 30.0399 11.7817 30.0625 11.7163 30.0838C11.651 30.105 11.5852 30.1249 11.519 30.1434C11.4529 30.1618 11.3863 30.1789 11.3194 30.1945C11.2525 30.2101 11.1852 30.2244 11.1177 30.2372C11.0502 30.25 10.9824 30.2613 10.9144 30.2713C10.8464 30.2812 10.7783 30.2896 10.7099 30.2967C10.6415 30.3037 10.573 30.3093 10.5044 30.3134C10.4359 30.3176 10.3672 30.3203 10.2985 30.3215C10.2298 30.3227 10.1611 30.3225 10.0924 30.3208C10.0237 30.3191 9.95505 30.3159 9.88646 30.3114C9.81791 30.3068 9.74946 30.3007 9.68115 30.2932C9.61284 30.2857 9.54475 30.2768 9.47679 30.2664C9.40887 30.256 9.34119 30.2442 9.27376 30.231C9.20633 30.2177 9.13922 30.203 9.07239 30.1869C9.00559 30.1708 8.93914 30.1534 8.87309 30.1345C8.80703 30.1155 8.74135 30.0953 8.67614 30.0736C8.61092 30.0519 8.54624 30.0288 8.48201 30.0044C8.41778 29.9799 8.35407 29.9542 8.29093 29.9271C8.22779 29.8999 8.16525 29.8715 8.10334 29.8417C8.04139 29.8119 7.98012 29.7808 7.91951 29.7485C7.85886 29.7161 7.79896 29.6825 7.73979 29.6475C7.68059 29.6126 7.62216 29.5765 7.5645 29.5391C7.50684 29.5017 7.45 29.4631 7.39396 29.4233C7.33795 29.3835 7.28279 29.3426 7.22848 29.3004C7.17419 29.2583 7.12083 29.215 7.06837 29.1707C7.01592 29.1262 6.96442 29.0808 6.9139 29.0342L6.25588 28.4272C6.1921 28.3684 6.12963 28.3083 6.0685 28.2468C6.00732 28.1853 5.94752 28.1225 5.88913 28.0583C5.83073 27.9942 5.77375 27.9288 5.71816 27.8622C5.66262 27.7957 5.60855 27.7279 5.55595 27.6589C5.50332 27.5899 5.45228 27.5198 5.40274 27.4487C5.35321 27.3775 5.30522 27.3052 5.25885 27.2319C5.21248 27.1586 5.16772 27.0843 5.12459 27.0091C5.08145 26.9339 5.03996 26.8577 5.00013 26.7807C4.96034 26.7036 4.92223 26.6257 4.8858 26.547C4.84942 26.4683 4.81472 26.3888 4.78178 26.3085C4.74884 26.2283 4.71769 26.1474 4.68826 26.0658C4.65884 25.9842 4.63124 25.902 4.60543 25.8192C4.57959 25.7364 4.55562 25.6531 4.53343 25.5692C4.51125 25.4854 4.49093 25.4011 4.47244 25.3163C4.45394 25.2316 4.43732 25.1465 4.42251 25.061C4.40775 24.9756 4.39485 24.8898 4.38381 24.8038C4.37277 24.7178 4.36363 24.6315 4.35635 24.5451C4.34907 24.4587 4.34369 24.3721 4.34021 24.2854C4.33673 24.1987 4.33512 24.1121 4.33543 24.0254C4.33575 23.9386 4.33793 23.8519 4.34201 23.7653C4.34609 23.6786 4.35206 23.5921 4.35994 23.5057C4.36778 23.4194 4.37752 23.3332 4.38915 23.2473C4.40079 23.1613 4.41429 23.0756 4.42965 22.9903C4.44501 22.9049 4.46221 22.82 4.4813 22.7353C4.50039 22.6507 4.5213 22.5665 4.54405 22.4829C4.5668 22.3992 4.59137 22.316 4.61777 22.2334C4.64418 22.1508 4.67234 22.0687 4.70229 21.9874C4.73228 21.9059 4.76399 21.8252 4.79749 21.7453C4.831 21.6652 4.86619 21.586 4.90314 21.5075C4.94009 21.4291 4.97876 21.3514 5.01908 21.2747C5.05941 21.1979 5.10142 21.122 5.14508 21.0471C5.18875 20.9721 5.23403 20.8982 5.28089 20.8252C9.2809 14.5992 13.0019 11.4712 16.4449 11.4412L16.4459 11.4412ZM21.4849 11.1712C18.2409 10.6002 17.5349 7.78219 18.2969 4.8742C19.0609 1.96519 21.1449 -0.35981 23.4469 0.0461897C25.7489 0.452173 26.9839 2.80019 26.6339 6.34419C26.2839 9.8872 24.7279 11.7442 21.4839 11.1712L21.4849 11.1712ZM11.9579 11.0452C8.69389 11.5052 7.00689 9.22219 7.00689 6.22821C7.00689 3.23317 8.12391 0.558204 10.4379 0.232191C12.7529 -0.0938099 14.5829 2.12818 15.3899 5.04921C16.1959 7.97119 15.2229 10.5872 11.9579 11.0452ZM28.2209 16.7752C25.9039 15.4012 25.7189 13.0562 26.9729 11.3872C28.2269 9.71821 30.4069 8.72121 32.2029 9.5902C34.0008 10.4592 34.4448 13.1172 33.4509 14.9782C32.4579 16.8392 30.5379 18.1502 28.2209 16.7762L28.2209 16.7752ZM6.66591 16.6892C4.93488 18.4202 2.48888 18.0892 1.14289 16.4032C-0.204113 14.7162 -0.437112 12.1472 0.856888 10.8792C2.14987 9.61221 4.55287 9.48719 6.37987 11.1652C8.20789 12.8432 8.39788 14.9572 6.66591 16.6892Z"   fill="#6D90B0" ></path></svg>