<svg xmlns="http://www.w3.org/2000/svg" xmlns:xlink="http://www.w3.org/1999/xlink" width="32" height="32" viewBox="0 0 32 32" fill="none"><path d="M16 13.3333C18.5774 13.3333 20.6667 11.244 20.6667 8.66667C20.6667 6.08934 18.5774 4 16 4C13.4227 4 11.3334 6.08934 11.3334 8.66667C11.3334 11.244 13.4227 13.3333 16 13.3333Z" stroke="rgba(255, 255, 255, 1.00)" stroke-width="2" stroke-linejoin="round" stroke-linecap="round"    fill="#FFFFFF" ></path><path d="M4 27.2L4 28L28 28L28 27.2C28 24.2131 28 22.7196 27.4187 21.5787C26.9074 20.5752 26.0915 19.7593 25.0879 19.2479C23.9471 18.6667 22.4536 18.6667 19.4667 18.6667L12.5333 18.6667C9.5464 18.6667 8.05293 18.6667 6.91207 19.2479C5.90852 19.7593 5.09262 20.5752 4.5813 21.5787C4 22.7196 4 24.2131 4 27.2Z" stroke="rgba(255, 255, 255, 1.00)" stroke-width="2" stroke-linejoin="round" stroke-linecap="round"    fill="#FFFFFF" ></path></svg>