<svg xmlns="http://www.w3.org/2000/svg" xmlns:xlink="http://www.w3.org/1999/xlink" width="48" height="48" viewBox="0 0 48 48" fill="none"><path d="M33.75 20.9531L31.5 20.9531L31.5 32.9531C31.5 34.61 30.1567 35.9531 28.5 35.9531L18 35.9531C16.3431 35.9531 15 34.61 15 32.9531L15 20.9531L12.75 20.9531C12.3357 20.9531 12 20.6174 12 20.2031L12 18.7031C12 18.289 12.3357 17.9531 12.75 17.9531L18 17.9531L18 14.9531C18 13.2962 19.3431 11.9531 21 11.9531L25.5 11.9531C27.1569 11.9531 28.5 13.2962 28.5 14.9531L28.5 17.9531L33.75 17.9531C34.1641 17.9531 34.5 18.289 34.5 18.7031L34.5 20.2031C34.5 20.6174 34.1641 20.9531 33.75 20.9531ZM19.5 20.9531L18 20.9531L18 32.9531L19.5 32.9531L19.5 20.9531ZM22.5 32.9531L24 32.9531L24 20.9531L22.5 20.9531L22.5 32.9531ZM25.5 15.7031C25.5 15.2888 25.1643 14.9531 24.75 14.9531L21.75 14.9531C21.3357 14.9531 21 15.2888 21 15.7031L21 17.9531L25.5 17.9531L25.5 15.7031ZM28.5 20.9531L27 20.9531L27 32.9531L28.5 32.9531L28.5 20.9531Z"   fill="#FFFFFF" ></path></svg>