<svg xmlns="http://www.w3.org/2000/svg" xmlns:xlink="http://www.w3.org/1999/xlink" width="48" height="48" viewBox="0 0 48 48" fill="none"><path d="M6.43103 22.1725L22.5099 11.0639L22.4954 33.0321L6.43103 22.1725Z"   fill="#FFFFFF" ></path><path d="M22.5313 33.105L22.4775 33.0687L6.35938 22.1729L22.5458 10.99L22.5458 11.064L22.5313 33.105ZM6.50262 22.1721L22.4595 32.959L22.474 11.1378L6.50262 22.1721Z"   fill="#FFFFFF" ></path><path d="M37.8742 30.3442C37.8742 30.3442 37.5298 28.5079 36.3959 27.3876C35.5261 26.5283 34.9848 26.0437 33.7081 25.7749C30.3856 25.0755 15.2216 25.7772 15.2216 25.7772L15.2216 19.3937C15.2216 19.3937 25.2947 19.2355 28.6011 19.9289C29.5823 20.1346 31.3183 20.3997 32.4985 21.004C33.7709 21.6556 35.0124 22.5996 35.6568 23.3558C37.8523 25.9328 37.8742 30.3442 37.8742 30.3442Z"   fill="#FFFFFF" ></path></svg>