<svg xmlns="http://www.w3.org/2000/svg" xmlns:xlink="http://www.w3.org/1999/xlink" width="48" height="48" viewBox="0 0 48 48" fill="none"><g  clip-path="url(#clip-path-112_64)"><path d="M46.515 22.2945L44.5912 22.2945L45.5422 20.6482C45.5546 20.6269 45.5663 20.6054 45.5776 20.5835C45.5888 20.5617 45.5995 20.5396 45.6097 20.5172C45.6199 20.4948 45.6294 20.4722 45.6385 20.4494C45.6475 20.4265 45.656 20.4035 45.6639 20.3802C45.6719 20.3569 45.6792 20.3335 45.6859 20.3099C45.6927 20.2863 45.6989 20.2625 45.7044 20.2386C45.71 20.2146 45.715 20.1906 45.7194 20.1664C45.7238 20.1423 45.7276 20.118 45.7309 20.0936C45.7341 20.0692 45.7367 20.0448 45.7387 20.0203C45.7407 19.9959 45.7421 19.9713 45.7429 19.9468C45.7437 19.9222 45.7439 19.8977 45.7435 19.8731C45.7431 19.8485 45.7421 19.824 45.7405 19.7995C45.7388 19.7749 45.7366 19.7505 45.7338 19.7261C45.731 19.7016 45.7276 19.6773 45.7236 19.6531C45.7196 19.6288 45.715 19.6047 45.7098 19.5807C45.7046 19.5567 45.6988 19.5328 45.6924 19.5091C45.6861 19.4853 45.6791 19.4618 45.6716 19.4384C45.664 19.415 45.6559 19.3918 45.6472 19.3689C45.6386 19.3458 45.6293 19.3231 45.6195 19.3006C45.6097 19.278 45.5994 19.2558 45.5886 19.2337C45.5776 19.2117 45.5662 19.1899 45.5543 19.1685C45.5423 19.147 45.5298 19.1258 45.5168 19.105C45.5039 19.0841 45.4904 19.0636 45.4763 19.0435C45.4623 19.0233 45.4478 19.0034 45.4328 18.984C45.4178 18.9645 45.4024 18.9454 45.3865 18.9267C45.3705 18.9079 45.3542 18.8897 45.3374 18.8718C45.3205 18.8538 45.3033 18.8364 45.2856 18.8193C45.2679 18.8022 45.2498 18.7856 45.2313 18.7695C45.2128 18.7533 45.1939 18.7376 45.1747 18.7223C45.1554 18.7071 45.1357 18.6923 45.1157 18.6781C45.0957 18.6638 45.0754 18.65 45.0547 18.6368C45.034 18.6235 45.0131 18.6107 44.9917 18.5985C44.9705 18.5861 44.949 18.5742 44.9271 18.5629C44.9053 18.5516 44.8832 18.5408 44.8608 18.5306C44.8385 18.5203 44.8158 18.5106 44.793 18.5015C44.7702 18.4923 44.7471 18.4838 44.7238 18.4758C44.7005 18.4678 44.6771 18.4604 44.6535 18.4536C44.6298 18.4468 44.6061 18.4406 44.5821 18.4349C44.5582 18.4293 44.5341 18.4242 44.5099 18.4197C44.4857 18.4152 44.4614 18.4114 44.437 18.4081C44.4127 18.4048 44.3882 18.4022 44.3637 18.4001C44.3392 18.3981 44.3146 18.3966 44.29 18.3958C44.2655 18.3949 44.2409 18.3947 44.2162 18.395C44.1916 18.3954 44.1671 18.3963 44.1426 18.3979C44.118 18.3995 44.0935 18.4017 44.0691 18.4045C44.0446 18.4073 44.0203 18.4106 43.996 18.4147C43.9717 18.4186 43.9476 18.4232 43.9235 18.4284C43.8995 18.4336 43.8756 18.4393 43.8518 18.4457C43.828 18.4521 43.8044 18.459 43.781 18.4666C43.7576 18.4741 43.7343 18.4822 43.7113 18.4908C43.6883 18.4995 43.6655 18.5087 43.643 18.5186C43.6204 18.5283 43.5981 18.5387 43.576 18.5496C43.554 18.5605 43.5322 18.5719 43.5107 18.5839C43.4892 18.5958 43.468 18.6083 43.4472 18.6213C43.4263 18.6344 43.4057 18.6479 43.3855 18.6619C43.3653 18.676 43.3455 18.6905 43.326 18.7055C43.3065 18.7205 43.2874 18.736 43.2687 18.7519C43.2499 18.7679 43.2316 18.7843 43.2137 18.8012C43.1958 18.818 43.1783 18.8353 43.1612 18.853C43.1442 18.8707 43.1275 18.8888 43.1114 18.9074C43.0952 18.9259 43.0795 18.9449 43.0642 18.9642C43.049 18.9835 43.0343 19.0031 43.02 19.0232C43.0057 19.0433 42.992 19.0637 42.9787 19.0844C42.9654 19.1051 42.9527 19.1261 42.9405 19.1475L41.1247 22.2945L35.6092 22.2945L38.8155 16.7475C38.832 16.7197 38.8305 16.6875 38.8447 16.6597C38.8875 16.572 38.9092 16.4812 38.9355 16.386C38.9617 16.2847 38.9895 16.1872 38.9955 16.0867C38.997 16.056 39.0127 16.0312 39.0127 16.0005C39.0127 15.936 38.9835 15.8805 38.976 15.8175C38.9666 15.7152 38.946 15.6152 38.9145 15.5175C38.8819 15.4271 38.8404 15.3411 38.79 15.2595C38.7445 15.177 38.6917 15.0995 38.6317 15.027C38.5633 14.9514 38.4873 14.8844 38.4037 14.826C38.3527 14.7862 38.319 14.7322 38.2612 14.7C38.2335 14.6842 38.2027 14.685 38.1735 14.6707C38.0872 14.6272 37.995 14.6047 37.8997 14.5785C37.797 14.5507 37.6987 14.523 37.5952 14.517C37.5675 14.5155 37.5427 14.5005 37.5135 14.5005L31.1055 14.5005L33.8632 9.72372L37.5007 9.72672C37.5254 9.72663 37.5499 9.72598 37.5745 9.72476C37.599 9.72344 37.6236 9.72157 37.648 9.71913C37.6725 9.71669 37.6969 9.7136 37.7212 9.70994C37.7455 9.70629 37.7697 9.70202 37.7939 9.69719C37.818 9.69237 37.8419 9.68693 37.8658 9.68093C37.8897 9.67488 37.9133 9.66827 37.9368 9.66115C37.9604 9.65393 37.9837 9.64619 38.0069 9.6379C38.03 9.62955 38.0529 9.62069 38.0756 9.61127C38.0984 9.6018 38.1208 9.59182 38.143 9.58132C38.1652 9.57072 38.1872 9.55966 38.2089 9.54808C38.2305 9.53646 38.2519 9.52432 38.273 9.51166C38.2941 9.49901 38.3149 9.48583 38.3353 9.47215C38.3557 9.45846 38.3759 9.4443 38.3956 9.42963C38.4153 9.41496 38.4347 9.39982 38.4537 9.38426C38.4727 9.3686 38.4913 9.35257 38.5095 9.33607C38.5278 9.31952 38.5456 9.30255 38.563 9.28521C38.5804 9.26777 38.5973 9.24996 38.6138 9.23177C38.6303 9.21354 38.6464 9.19493 38.662 9.17594C38.6776 9.15691 38.6927 9.13755 38.7074 9.11782C38.7221 9.09804 38.7362 9.07797 38.7499 9.05754C38.7636 9.0371 38.7768 9.01633 38.7894 8.99524C38.8021 8.97415 38.8142 8.95277 38.8259 8.93112C38.8374 8.90941 38.8485 8.88747 38.859 8.86526C38.8696 8.84304 38.8796 8.82054 38.889 8.79785C38.8985 8.77512 38.9074 8.75219 38.9157 8.72908C38.924 8.70593 38.9317 8.68258 38.9389 8.6591C38.9461 8.63557 38.9527 8.61185 38.9587 8.58804C38.9647 8.56418 38.9701 8.54018 38.975 8.51608C38.9798 8.49194 38.9841 8.46771 38.9877 8.44343C38.9914 8.4191 38.9944 8.39472 38.9969 8.37026C38.9994 8.34579 39.0013 8.32127 39.0025 8.29671C39.0038 8.27215 39.0045 8.24754 39.0045 8.22297C39.0045 8.19841 39.0038 8.17385 39.0026 8.14929C39.0013 8.12472 38.9995 8.10026 38.997 8.07583C38.9946 8.05136 38.9916 8.02699 38.9879 8.00271C38.9843 7.97838 38.98 7.95419 38.9752 7.9301C38.9704 7.90601 38.965 7.88201 38.959 7.85819C38.9529 7.83438 38.9464 7.81071 38.9392 7.78722C38.932 7.76369 38.9242 7.7404 38.916 7.71729C38.9077 7.69413 38.8987 7.67126 38.8893 7.64857C38.8799 7.62588 38.8699 7.60343 38.8594 7.58121C38.8488 7.55899 38.8378 7.5371 38.8261 7.51544C38.8145 7.49379 38.8024 7.47241 38.7897 7.45135C38.7771 7.43029 38.7639 7.40955 38.7502 7.38914C38.7365 7.36874 38.7224 7.34868 38.7077 7.32896C38.693 7.30924 38.6779 7.2899 38.6623 7.27092C38.6467 7.25196 38.6306 7.23338 38.614 7.21519C38.5975 7.197 38.5805 7.17924 38.5631 7.16189C38.5457 7.14455 38.5279 7.12765 38.5097 7.11117C38.4915 7.09468 38.4728 7.07866 38.4538 7.06313C38.4348 7.04756 38.4154 7.03247 38.3956 7.01785C38.3759 7.00325 38.3558 6.98914 38.3353 6.97552C38.3149 6.9619 38.2941 6.94879 38.273 6.93619C38.2519 6.92357 38.2305 6.91149 38.2088 6.89996C38.1871 6.8884 38.1652 6.87738 38.1429 6.86691C38.1207 6.85644 38.0983 6.84652 38.0755 6.83714C38.0528 6.82777 38.0299 6.81896 38.0067 6.81071C37.9836 6.80249 37.9602 6.79482 37.9367 6.78769C37.9132 6.7806 37.8895 6.77408 37.8657 6.76814C37.8418 6.76221 37.8179 6.75687 37.7937 6.75212C37.7696 6.74736 37.7454 6.74321 37.7211 6.73964C37.6968 6.73608 37.6724 6.73311 37.6479 6.73074C37.6235 6.72836 37.5989 6.72658 37.5744 6.72539C37.5499 6.72424 37.5253 6.72368 37.5007 6.72371L35.5972 6.72221L36.5602 5.05496C36.5726 5.03371 36.5843 5.01215 36.5956 4.99027C36.6069 4.96842 36.6176 4.94633 36.6277 4.92399C36.6379 4.90161 36.6475 4.87901 36.6566 4.85616C36.6656 4.83332 36.6742 4.81025 36.6821 4.78697C36.69 4.76372 36.6974 4.74028 36.7041 4.71666C36.7109 4.69303 36.7171 4.66925 36.7227 4.64532C36.7283 4.6214 36.7333 4.59734 36.7378 4.57317C36.7422 4.549 36.746 4.52473 36.7492 4.50036C36.7525 4.476 36.7551 4.45158 36.7571 4.42708C36.7591 4.40259 36.7606 4.37807 36.7614 4.3535C36.7622 4.32894 36.7625 4.30437 36.7621 4.2798C36.7617 4.25523 36.7607 4.23068 36.7591 4.20615C36.7576 4.18163 36.7554 4.15716 36.7526 4.13274C36.7498 4.10832 36.7464 4.08399 36.7425 4.05974C36.7385 4.03549 36.7339 4.01135 36.7287 3.98732C36.7235 3.9633 36.7177 3.93942 36.7114 3.91567C36.7051 3.89193 36.6982 3.86835 36.6907 3.84495C36.6832 3.82155 36.6751 3.79834 36.6665 3.77533C36.6578 3.75233 36.6486 3.72955 36.6389 3.707C36.6291 3.68444 36.6188 3.66214 36.6079 3.64009C36.5971 3.61804 36.5857 3.59628 36.5737 3.57479C36.5618 3.5533 36.5494 3.53212 36.5364 3.51124C36.5234 3.49037 36.5099 3.46982 36.496 3.4496C36.482 3.42939 36.4675 3.40954 36.4526 3.39003C36.4376 3.37053 36.4222 3.3514 36.4063 3.33266C36.3904 3.31391 36.3741 3.29556 36.3573 3.27762C36.3405 3.25968 36.3233 3.24216 36.3056 3.22507C36.288 3.20797 36.2699 3.19132 36.2514 3.17511C36.233 3.1589 36.2141 3.14315 36.1949 3.12787C36.1756 3.11259 36.156 3.09779 36.136 3.08347C36.1161 3.06915 36.0958 3.05533 36.0751 3.04201C36.0544 3.02869 36.0335 3.01589 36.0122 3.0036C35.9909 2.99131 35.9693 2.97954 35.9474 2.96831C35.9256 2.95708 35.9035 2.9464 35.8811 2.93625C35.8587 2.92611 35.8361 2.91652 35.8132 2.90749C35.7904 2.89846 35.7673 2.89 35.7441 2.8821C35.7208 2.8742 35.6973 2.86688 35.6737 2.86013C35.65 2.85338 35.6263 2.84722 35.6024 2.84164C35.5784 2.83606 35.5544 2.83108 35.5302 2.82668C35.506 2.82229 35.4817 2.81849 35.4573 2.81528C35.433 2.81208 35.4086 2.80948 35.3841 2.80748C35.3595 2.80548 35.335 2.80408 35.3105 2.80328C35.2859 2.80248 35.2613 2.80229 35.2368 2.8027C35.2122 2.80311 35.1877 2.80412 35.1631 2.80574C35.1386 2.80736 35.1142 2.80957 35.0897 2.81239C35.0653 2.81521 35.041 2.81863 35.0167 2.82264C34.9925 2.82665 34.9684 2.83126 34.9443 2.83646C34.9203 2.84166 34.8964 2.84745 34.8727 2.85382C34.8489 2.86019 34.8254 2.86714 34.802 2.87468C34.7786 2.88221 34.7554 2.89031 34.7324 2.89898C34.7094 2.90765 34.6867 2.91688 34.6641 2.92667C34.6416 2.93646 34.6193 2.94679 34.5973 2.95768C34.5752 2.96856 34.5535 2.97998 34.532 2.99193C34.5105 3.00389 34.4894 3.01636 34.4685 3.02935C34.4476 3.04235 34.4271 3.05585 34.4069 3.06985C34.3867 3.08385 34.3669 3.09834 34.3474 3.11332C34.3279 3.12829 34.3088 3.14374 34.29 3.15966C34.2713 3.17557 34.253 3.19194 34.2351 3.20875C34.2172 3.22557 34.1997 3.24282 34.1826 3.26049C34.1655 3.27817 34.1489 3.29625 34.1327 3.31474C34.1165 3.33324 34.1008 3.35212 34.0855 3.37138C34.0703 3.39065 34.0555 3.41028 34.0412 3.43027C34.0269 3.45026 34.0131 3.47059 33.9998 3.49126C33.9865 3.51193 33.9737 3.53292 33.9615 3.55421L32.9992 5.22071L32.0497 3.57521C32.0375 3.5539 32.0247 3.5329 32.0114 3.51222C31.9981 3.49153 31.9844 3.47119 31.9701 3.45118C31.9558 3.43117 31.941 3.41153 31.9257 3.39225C31.9105 3.37298 31.8947 3.35408 31.8786 3.33558C31.8624 3.31707 31.8457 3.29898 31.8286 3.28129C31.8116 3.2636 31.7941 3.24635 31.7761 3.22952C31.7582 3.2127 31.7399 3.19632 31.7212 3.1804C31.7025 3.16447 31.6833 3.14902 31.6638 3.13404C31.6443 3.11905 31.6245 3.10456 31.6043 3.09055C31.5841 3.07654 31.5635 3.06304 31.5427 3.05004C31.5218 3.03705 31.5006 3.02457 31.4791 3.01262C31.4576 3.00066 31.4359 2.98924 31.4138 2.97836C31.3918 2.96747 31.3695 2.95714 31.347 2.94735C31.3244 2.93756 31.3016 2.92834 31.2786 2.91967C31.2556 2.91101 31.2323 2.90291 31.209 2.89538C31.1856 2.88786 31.162 2.88091 31.1382 2.87455C31.1145 2.86819 31.0906 2.86241 31.0665 2.85722C31.0425 2.85203 31.0184 2.84743 30.9941 2.84343C30.9699 2.83943 30.9455 2.83603 30.9211 2.83322C30.8967 2.83042 30.8722 2.82822 30.8476 2.82662C30.8231 2.82502 30.7986 2.82402 30.774 2.82363C30.7494 2.82324 30.7248 2.82346 30.7003 2.82428C30.6757 2.82509 30.6511 2.82651 30.6266 2.82854C30.6021 2.83056 30.5777 2.83319 30.5533 2.83642C30.5289 2.83964 30.5047 2.84347 30.4805 2.84789C30.4563 2.85231 30.4322 2.85733 30.4083 2.86293C30.3843 2.86853 30.3606 2.87473 30.3369 2.8815C30.3133 2.88828 30.2899 2.89563 30.2666 2.90356C30.2433 2.91149 30.2202 2.91999 30.1974 2.92905C30.1746 2.93812 30.1519 2.94774 30.1296 2.95791C30.1072 2.96809 30.085 2.97881 30.0632 2.99008C30.0413 3.00134 30.0198 3.01314 29.9985 3.02546C29.9772 3.03769 29.9561 3.05044 29.9354 3.06371C29.9146 3.07698 29.8942 3.09075 29.8742 3.10502C29.8542 3.1193 29.8345 3.13406 29.8152 3.1493C29.7959 3.16455 29.7769 3.18025 29.7584 3.19643C29.7399 3.21261 29.7217 3.22923 29.704 3.2463C29.6863 3.26338 29.669 3.28087 29.6521 3.2988C29.6353 3.31672 29.6189 3.33505 29.6029 3.35378C29.5869 3.37252 29.5715 3.39163 29.5565 3.41113C29.5415 3.43063 29.5269 3.45048 29.5129 3.47069C29.4989 3.49091 29.4853 3.51146 29.4723 3.53233C29.4593 3.55322 29.4468 3.5744 29.4348 3.5959C29.4229 3.61739 29.4114 3.63918 29.4005 3.66124C29.3896 3.6833 29.3792 3.70561 29.3694 3.72818C29.3596 3.75075 29.3504 3.77355 29.3417 3.79658C29.3331 3.8196 29.325 3.84283 29.3174 3.86626C29.3099 3.88969 29.3029 3.91328 29.2965 3.93705C29.2902 3.96082 29.2845 3.98473 29.2792 4.00879C29.274 4.03284 29.2695 4.05701 29.2655 4.08128C29.2615 4.10557 29.2581 4.12993 29.2552 4.15437C29.2525 4.17882 29.2503 4.20333 29.2487 4.22788C29.2471 4.25244 29.2461 4.27702 29.2457 4.30162C29.2454 4.32623 29.2456 4.35083 29.2464 4.37542C29.2473 4.40001 29.2487 4.42457 29.2508 4.44909C29.2528 4.47361 29.2555 4.49807 29.2587 4.52246C29.262 4.54685 29.2658 4.57115 29.2703 4.59535C29.2747 4.61955 29.2798 4.64362 29.2854 4.66758C29.2911 4.69152 29.2973 4.71532 29.3041 4.73897C29.3109 4.76263 29.3183 4.7861 29.3263 4.80938C29.3342 4.83266 29.3428 4.85572 29.3519 4.87856C29.361 4.90144 29.3707 4.92407 29.3809 4.94644C29.3911 4.96882 29.4019 4.99092 29.4132 5.01277C29.4245 5.03465 29.4364 5.05621 29.4487 5.07746L31.2675 8.22297L28.5097 12.9997L25.308 7.44896C25.2922 7.42121 25.2637 7.40471 25.2465 7.37846C25.1917 7.29971 25.1242 7.23521 25.0552 7.16471C24.9802 7.08971 24.909 7.01846 24.8227 6.96146C24.798 6.94571 24.7845 6.91871 24.7582 6.90446C24.7027 6.87221 24.6412 6.86921 24.5827 6.84446C24.4893 6.8018 24.3926 6.76905 24.2925 6.74621C24.1954 6.7298 24.0976 6.72355 23.9992 6.72746C23.9085 6.72746 23.8207 6.72896 23.73 6.74621C23.6227 6.76646 23.5275 6.80471 23.4285 6.84746C23.373 6.87071 23.313 6.87371 23.2582 6.90446C23.232 6.91946 23.217 6.94571 23.1937 6.96146C23.1075 7.01696 23.0385 7.08896 22.965 7.16396C22.893 7.23596 22.8232 7.30346 22.7677 7.38671C22.752 7.41146 22.7235 7.42646 22.7092 7.45271L19.506 13.0012L16.7482 8.22598L18.5685 5.07746C18.5807 5.05617 18.5925 5.0346 18.6037 5.01272C18.6149 4.99085 18.6256 4.96871 18.6357 4.9463C18.6458 4.92389 18.6554 4.90127 18.6644 4.87842C18.6734 4.85555 18.6818 4.83247 18.6898 4.80919C18.6976 4.78591 18.705 4.76246 18.7117 4.73883C18.7184 4.71521 18.7245 4.69142 18.7301 4.66747C18.7357 4.64353 18.7407 4.61947 18.745 4.59529C18.7494 4.57111 18.7532 4.54683 18.7564 4.52246C18.7596 4.4981 18.7622 4.47366 18.7642 4.44917C18.7662 4.42467 18.7676 4.40015 18.7684 4.37558C18.7692 4.35102 18.7694 4.32645 18.769 4.30187C18.7686 4.2773 18.7676 4.25275 18.7659 4.22823C18.7643 4.20371 18.7621 4.17924 18.7593 4.15482C18.7565 4.13041 18.7531 4.10607 18.7491 4.08182C18.7451 4.05758 18.7405 4.03344 18.7353 4.00942C18.7301 3.98539 18.7243 3.96151 18.718 3.93777C18.7116 3.91404 18.7047 3.89046 18.6971 3.86706C18.6896 3.84367 18.6816 3.82047 18.6729 3.79746C18.6642 3.77446 18.655 3.75169 18.6453 3.72913C18.6355 3.70658 18.6252 3.68428 18.6143 3.66223C18.6035 3.64019 18.5921 3.61842 18.5801 3.59694C18.5682 3.57545 18.5557 3.55427 18.5428 3.53339C18.5298 3.51252 18.5163 3.49197 18.5024 3.47176C18.4884 3.45154 18.4739 3.43168 18.459 3.41217C18.444 3.39267 18.4286 3.37354 18.4127 3.35479C18.3968 3.33604 18.3805 3.31769 18.3637 3.29974C18.3469 3.28179 18.3297 3.26426 18.312 3.24716C18.2944 3.23005 18.2763 3.21339 18.2579 3.19717C18.2394 3.18095 18.2205 3.16519 18.2013 3.1499C18.1821 3.1346 18.1625 3.11978 18.1425 3.10545C18.1226 3.09112 18.1023 3.07728 18.0816 3.06394C18.061 3.0506 18.04 3.03778 18.0187 3.02546C17.9975 3.01318 17.9759 3.00144 17.954 2.99022C17.9322 2.97901 17.91 2.96833 17.8877 2.9582C17.8653 2.94807 17.8427 2.9385 17.8198 2.92948C17.797 2.92046 17.7739 2.91201 17.7507 2.90412C17.7274 2.89623 17.7039 2.88893 17.6803 2.88219C17.6567 2.87546 17.6329 2.86931 17.609 2.86374C17.5851 2.85818 17.561 2.8532 17.5368 2.84882C17.5126 2.84443 17.4884 2.84065 17.464 2.83746C17.4397 2.83427 17.4152 2.83167 17.3908 2.82968C17.3662 2.82769 17.3417 2.8263 17.3172 2.82551C17.2927 2.82473 17.2681 2.82455 17.2435 2.82496C17.219 2.82538 17.1944 2.82641 17.1699 2.82803C17.1454 2.82966 17.121 2.83189 17.0965 2.83471C17.0721 2.83754 17.0478 2.84096 17.0235 2.84499C16.9993 2.84901 16.9752 2.85363 16.9512 2.85883C16.9272 2.86404 16.9033 2.86983 16.8796 2.87621C16.8559 2.88259 16.8323 2.88955 16.809 2.89709C16.7856 2.90463 16.7624 2.91274 16.7394 2.92141C16.7164 2.93009 16.6937 2.93932 16.6711 2.94912C16.6486 2.95891 16.6263 2.96926 16.6043 2.98014C16.5823 2.99103 16.5605 3.00246 16.5391 3.01441C16.5176 3.02637 16.4965 3.03885 16.4756 3.05185C16.4548 3.06485 16.4343 3.07835 16.4141 3.09235C16.3939 3.10635 16.374 3.12085 16.3546 3.13583C16.3351 3.15081 16.316 3.16625 16.2973 3.18217C16.2786 3.19809 16.2603 3.21446 16.2424 3.23127C16.2245 3.24809 16.207 3.26534 16.1899 3.28301C16.1729 3.30069 16.1562 3.31878 16.14 3.33726C16.1239 3.35576 16.1082 3.37464 16.0929 3.3939C16.0777 3.41317 16.0629 3.4328 16.0486 3.45278C16.0343 3.47277 16.0206 3.4931 16.0073 3.51377C15.994 3.53444 15.9812 3.55542 15.969 3.57671L15.0165 5.22521L14.0527 3.55646C14.0401 3.53592 14.027 3.5157 14.0133 3.4958C13.9997 3.47589 13.9856 3.45633 13.971 3.4371C13.9565 3.41788 13.9415 3.39902 13.926 3.38052C13.9105 3.36202 13.8946 3.3439 13.8782 3.32616C13.8619 3.30843 13.8451 3.2911 13.8279 3.27418C13.8107 3.25726 13.7932 3.24076 13.7752 3.22468C13.7572 3.2086 13.7388 3.19296 13.7201 3.17777C13.7014 3.16258 13.6823 3.14785 13.6628 3.13358C13.6434 3.11931 13.6236 3.10551 13.6035 3.09219C13.5834 3.07888 13.563 3.06605 13.5422 3.05372C13.5215 3.04138 13.5005 3.02956 13.4792 3.01823C13.4579 3.00692 13.4363 2.99612 13.4145 2.98583C13.3927 2.97556 13.3707 2.96581 13.3484 2.95659C13.3261 2.94737 13.3036 2.9387 13.2809 2.93056C13.2582 2.92243 13.2353 2.91485 13.2122 2.90783C13.1891 2.90079 13.1659 2.89433 13.1425 2.88842C13.1191 2.88251 13.0956 2.87717 13.072 2.87239C13.0483 2.86762 13.0246 2.86341 13.0007 2.85978C12.9769 2.85616 12.953 2.8531 12.929 2.85062C12.905 2.84815 12.881 2.84625 12.8569 2.84493C12.8328 2.84361 12.8087 2.84288 12.7845 2.84273C12.7605 2.84257 12.7364 2.84299 12.7122 2.844C12.6881 2.84501 12.6641 2.84659 12.64 2.84876C12.616 2.85093 12.5921 2.85367 12.5682 2.85699C12.5443 2.86032 12.5205 2.86421 12.4968 2.86868C12.4731 2.87315 12.4495 2.87819 12.426 2.8838C12.4026 2.8894 12.3793 2.89557 12.3561 2.9023C12.333 2.90903 12.31 2.91632 12.2872 2.92416C12.2643 2.93199 12.2417 2.94038 12.2193 2.94931C12.1969 2.95824 12.1747 2.9677 12.1528 2.9777C12.1308 2.9877 12.1091 2.99822 12.0877 3.00926C12.0663 3.02031 12.0451 3.03186 12.0242 3.04393C12.0033 3.05599 11.9827 3.06855 11.9625 3.08161C11.9422 3.09467 11.9222 3.1082 11.9026 3.12223C11.883 3.13625 11.8637 3.15073 11.8447 3.16568C11.8259 3.18063 11.8073 3.19602 11.7891 3.21187C11.7709 3.22771 11.7531 3.24398 11.7357 3.26069C11.7183 3.27739 11.7013 3.29449 11.6847 3.31202C11.6682 3.32954 11.652 3.34745 11.6363 3.36575C11.6206 3.38405 11.6053 3.40272 11.5905 3.42175C11.5757 3.44079 11.5613 3.46017 11.5475 3.47989C11.5336 3.49962 11.5202 3.51967 11.5073 3.54004C11.4944 3.56042 11.482 3.58109 11.47 3.60206C11.4581 3.62303 11.4467 3.64428 11.4359 3.6658C11.4249 3.68733 11.4146 3.7091 11.4047 3.73111C11.3949 3.75313 11.3856 3.77538 11.3768 3.79785C11.3681 3.82032 11.3598 3.84299 11.3521 3.86586C11.3445 3.88872 11.3374 3.91176 11.3308 3.93497C11.3242 3.95818 11.3182 3.98154 11.3128 4.00503C11.3073 4.02853 11.3025 4.05215 11.2982 4.07588C11.2939 4.09962 11.2901 4.12344 11.287 4.14735C11.2838 4.17127 11.2813 4.19524 11.2793 4.21928C11.2773 4.24332 11.2759 4.26739 11.275 4.29149C11.2742 4.3156 11.274 4.33971 11.2743 4.36383C11.2746 4.38795 11.2755 4.41204 11.277 4.43612C11.2785 4.46019 11.2806 4.48422 11.2832 4.50819C11.2859 4.53216 11.2891 4.55606 11.2929 4.57988C11.2967 4.6037 11.301 4.62741 11.306 4.65102C11.3109 4.67463 11.3165 4.69811 11.3225 4.72144C11.3286 4.74478 11.3353 4.76797 11.3424 4.791C11.3496 4.81404 11.3573 4.83687 11.3656 4.85949C11.3739 4.88215 11.3828 4.90459 11.3922 4.9268C11.4015 4.94902 11.4114 4.97101 11.4219 4.99275C11.4323 5.0145 11.4433 5.03599 11.4547 5.05721L12.4177 6.72446L10.5172 6.72446C10.4926 6.72439 10.4681 6.72494 10.4435 6.7261C10.419 6.72725 10.3944 6.729 10.37 6.73135C10.3455 6.73369 10.3211 6.73664 10.2967 6.74021C10.2724 6.74377 10.2482 6.74793 10.2241 6.75267C10.2 6.75743 10.176 6.76277 10.1521 6.76871C10.1282 6.77461 10.1046 6.78111 10.081 6.78821C10.0575 6.7953 10.0341 6.80297 10.011 6.81123C9.9878 6.81947 9.96483 6.82829 9.94209 6.83766C9.91936 6.84703 9.89691 6.85698 9.87464 6.86748C9.85242 6.87794 9.83044 6.88896 9.80873 6.90052C9.78703 6.91208 9.76566 6.92418 9.74456 6.9368C9.72347 6.94939 9.7027 6.96252 9.68222 6.97618C9.66173 6.9898 9.64162 7.00392 9.62189 7.01855C9.60216 7.03321 9.58275 7.04832 9.56372 7.06388C9.54469 7.07947 9.52608 7.09552 9.50784 7.11202C9.48961 7.12852 9.4718 7.14546 9.45441 7.16283C9.43701 7.18021 9.42009 7.19801 9.40355 7.21623C9.387 7.23444 9.37097 7.25305 9.35536 7.27205C9.33975 7.29105 9.32466 7.31043 9.30998 7.33018C9.29531 7.3499 9.28116 7.36999 9.26752 7.39046C9.25387 7.4109 9.2407 7.43166 9.22809 7.45275C9.21544 7.47385 9.20334 7.49524 9.19176 7.5169C9.18019 7.53855 9.16912 7.56054 9.15862 7.5828C9.14812 7.60502 9.13819 7.62747 9.12877 7.65021C9.11934 7.6729 9.11053 7.69587 9.10228 7.71902C9.09398 7.74218 9.0863 7.76552 9.07917 7.78905C9.07205 7.81258 9.06553 7.83626 9.05958 7.86016C9.05362 7.88397 9.04828 7.90797 9.0435 7.93212C9.03872 7.95621 9.03455 7.98044 9.03094 8.00477C9.02737 8.02905 9.02442 8.05347 9.02203 8.07799C9.01964 8.10246 9.01786 8.12693 9.01669 8.15149C9.01552 8.17605 9.01495 8.20061 9.015 8.22522C9.01495 8.24979 9.01552 8.2744 9.01669 8.29896C9.01786 8.32352 9.01964 8.34808 9.02203 8.37255C9.02442 8.39702 9.02737 8.4214 9.03094 8.44577C9.03455 8.4701 9.03872 8.49433 9.0435 8.51847C9.04823 8.54257 9.05362 8.56657 9.05958 8.59043C9.06553 8.61429 9.07205 8.63801 9.07917 8.66158C9.0863 8.68512 9.09398 8.70846 9.10223 8.73162C9.11053 8.75477 9.11934 8.77769 9.12872 8.80047C9.13814 8.82316 9.14808 8.84566 9.15858 8.86793C9.16908 8.89015 9.18014 8.91213 9.19172 8.93383C9.2033 8.95549 9.21539 8.97691 9.22805 8.99805C9.24066 9.01915 9.25383 9.03991 9.26747 9.06035C9.28111 9.08079 9.29527 9.1009 9.30994 9.12068C9.32456 9.14046 9.3397 9.15982 9.35531 9.17885C9.37092 9.19788 9.38695 9.21649 9.40345 9.23472C9.42 9.25291 9.43692 9.27072 9.45431 9.28816C9.4717 9.30551 9.48952 9.32247 9.50775 9.33902C9.52598 9.35552 9.54459 9.37155 9.56362 9.38716C9.58261 9.40272 9.60201 9.41787 9.6218 9.43254C9.64153 9.44716 9.66164 9.46132 9.68212 9.47501C9.70256 9.48865 9.72333 9.50177 9.74442 9.51443C9.76556 9.52704 9.78694 9.53913 9.80864 9.55076C9.83034 9.56233 9.85228 9.5734 9.87455 9.5839C9.89681 9.5944 9.91926 9.60433 9.942 9.61371C9.96473 9.62308 9.98766 9.63194 10.0109 9.64024C10.034 9.64849 10.0574 9.65618 10.0809 9.6633C10.1045 9.67043 10.1281 9.67694 10.152 9.6829C10.1759 9.68885 10.1999 9.69419 10.224 9.69897C10.2481 9.70376 10.2724 9.70793 10.2967 9.71154C10.321 9.7151 10.3455 9.71805 10.3699 9.72044C10.3944 9.72279 10.4189 9.72457 10.4435 9.72579C10.4681 9.72691 10.4926 9.72747 10.5172 9.72747L14.1517 9.72598L16.9095 14.5027L10.5015 14.4997C10.4692 14.4997 10.443 14.5162 10.4122 14.517C10.314 14.5245 10.2217 14.5507 10.125 14.577C10.0252 14.6032 9.9285 14.6265 9.83925 14.6722C9.8115 14.6872 9.78075 14.6857 9.7545 14.7015C9.6975 14.7337 9.66375 14.7877 9.612 14.8275C9.5295 14.889 9.4515 14.949 9.384 15.027C9.318 15.102 9.27 15.1837 9.22125 15.2685C9.17625 15.3487 9.132 15.4267 9.10125 15.5145C9.06952 15.6142 9.04903 15.7162 9.03975 15.8205C9.03225 15.882 9.003 15.936 9.003 16.0005C9.003 16.0312 9.0195 16.0575 9.02025 16.0897C9.02625 16.1865 9.0525 16.2795 9.07875 16.3762C9.105 16.479 9.13125 16.578 9.1785 16.671C9.192 16.6972 9.1905 16.725 9.20475 16.7505L12.4065 22.2975L6.891 22.2975L5.07375 19.149C5.0617 19.1273 5.04909 19.106 5.03592 19.085C5.0228 19.0639 5.00916 19.0433 4.995 19.0229C4.98084 19.0026 4.96617 18.9826 4.95103 18.963C4.93589 18.9434 4.92028 18.9242 4.90416 18.9053C4.88808 18.8865 4.87153 18.868 4.85452 18.85C4.8375 18.832 4.82002 18.8144 4.80216 18.7973C4.78425 18.7801 4.76597 18.7634 4.74727 18.7472C4.72856 18.7309 4.70944 18.7151 4.68994 18.6998C4.67044 18.6845 4.65057 18.6697 4.63034 18.6554C4.61011 18.641 4.58954 18.6273 4.56862 18.614C4.54771 18.6007 4.52647 18.5879 4.50493 18.5756C4.48338 18.5634 4.46154 18.5517 4.43941 18.5405C4.41728 18.5294 4.3949 18.5187 4.37224 18.5087C4.34959 18.4987 4.3267 18.4892 4.30357 18.4803C4.28045 18.4713 4.25712 18.463 4.23359 18.4553C4.21005 18.4475 4.18633 18.4403 4.16244 18.4337C4.13855 18.4271 4.1145 18.4211 4.09031 18.4158C4.06612 18.4103 4.04182 18.4055 4.01739 18.4014C3.99296 18.3971 3.96844 18.3936 3.94384 18.3906C3.91923 18.3876 3.89457 18.3853 3.86985 18.3836C3.84513 18.3818 3.82038 18.3806 3.79559 18.3801C3.77082 18.3796 3.74604 18.3797 3.72127 18.3804C3.69649 18.3811 3.67175 18.3824 3.64704 18.3843C3.62234 18.3863 3.59769 18.3888 3.5731 18.3919C3.54852 18.3951 3.52403 18.3988 3.49964 18.4032C3.47524 18.4076 3.45097 18.4126 3.42682 18.4181C3.40267 18.4237 3.37867 18.4299 3.35482 18.4366C3.33097 18.4434 3.30731 18.4507 3.28383 18.4586C3.26035 18.4666 3.23708 18.4751 3.21402 18.4842C3.19096 18.4932 3.16814 18.5029 3.14556 18.5131C3.12298 18.5233 3.10066 18.5341 3.07862 18.5455C3.05657 18.5568 3.03482 18.5686 3.01336 18.581C2.9919 18.5934 2.97076 18.6063 2.94994 18.6198C2.92912 18.6332 2.90865 18.6472 2.88852 18.6617C2.8684 18.6761 2.84864 18.6911 2.82925 18.7065C2.80987 18.7219 2.79088 18.7378 2.77228 18.7542C2.75369 18.7706 2.7355 18.7874 2.71774 18.8048C2.69998 18.822 2.68266 18.8397 2.66577 18.8579C2.64888 18.876 2.63246 18.8946 2.6165 18.9135C2.60053 18.9325 2.58504 18.9518 2.57004 18.9716C2.55503 18.9912 2.54052 19.0113 2.52651 19.0318C2.5125 19.0523 2.499 19.073 2.48602 19.0941C2.47305 19.1152 2.46059 19.1366 2.44867 19.1584C2.43675 19.1801 2.42538 19.2021 2.41455 19.2244C2.40372 19.2467 2.39345 19.2693 2.38374 19.2921C2.37404 19.3149 2.3649 19.3379 2.35633 19.3612C2.34776 19.3844 2.33977 19.4079 2.33236 19.4315C2.32496 19.4552 2.31814 19.479 2.31191 19.503C2.30569 19.527 2.30006 19.5511 2.29503 19.5754C2.29 19.5996 2.28557 19.624 2.28175 19.6485C2.27793 19.673 2.27472 19.6976 2.27212 19.7222C2.26951 19.7469 2.26752 19.7716 2.26614 19.7963C2.26477 19.8211 2.264 19.8458 2.26385 19.8706C2.2637 19.8954 2.26416 19.9202 2.26523 19.9449C2.26631 19.9697 2.268 19.9944 2.2703 20.0191C2.2726 20.0437 2.27551 20.0683 2.27903 20.0929C2.28255 20.1174 2.28668 20.1418 2.29141 20.1662C2.29614 20.1905 2.30148 20.2147 2.30741 20.2388C2.31334 20.2628 2.31986 20.2867 2.32698 20.3105C2.3341 20.3342 2.3418 20.3578 2.35008 20.3811C2.35837 20.4045 2.36722 20.4276 2.37665 20.4506C2.38608 20.4734 2.39608 20.4961 2.40663 20.5186C2.41718 20.541 2.42829 20.5631 2.43994 20.585C2.45159 20.6069 2.46378 20.6284 2.4765 20.6497L3.4275 22.2975L1.50075 22.2975C1.47618 22.2975 1.45163 22.298 1.4271 22.2993C1.40257 22.3004 1.37807 22.3022 1.35363 22.3046C1.32918 22.307 1.30481 22.31 1.28051 22.3136C1.25621 22.3172 1.23201 22.3214 1.20792 22.3262C1.18382 22.3309 1.15986 22.3363 1.13603 22.3423C1.1122 22.3482 1.08853 22.3548 1.06502 22.3619C1.04152 22.3691 1.0182 22.3767 0.995062 22.385C0.97193 22.3933 0.949017 22.4021 0.92632 22.4115C0.903623 22.4209 0.88117 22.4308 0.858966 22.4413C0.836756 22.4518 0.814819 22.4628 0.793153 22.4745C0.771487 22.486 0.750117 22.4981 0.729047 22.5108C0.707977 22.5234 0.687225 22.5365 0.666802 22.5502C0.646373 22.5638 0.626292 22.5779 0.606562 22.5926C0.586833 22.6072 0.567469 22.6223 0.54848 22.6379C0.529491 22.6534 0.510895 22.6695 0.492694 22.686C0.474492 22.7025 0.456709 22.7194 0.439339 22.7368C0.42197 22.7542 0.405037 22.7719 0.388541 22.7902C0.372045 22.8084 0.356006 22.8269 0.340424 22.846C0.324842 22.8649 0.309735 22.8843 0.295104 22.904C0.280473 22.9237 0.266335 22.9438 0.25269 22.9643C0.239046 22.9847 0.225911 23.0054 0.213285 23.0265C0.200661 23.0476 0.18856 23.0689 0.176985 23.0906C0.165409 23.1123 0.154373 23.1342 0.143875 23.1565C0.133378 23.1786 0.123431 23.2011 0.114037 23.2238C0.104642 23.2465 0.0958102 23.2694 0.0875409 23.2925C0.0792722 23.3156 0.0715762 23.3389 0.0644526 23.3625C0.0573295 23.386 0.0507881 23.4097 0.0448275 23.4335C0.0388671 23.4573 0.0334952 23.4813 0.0287121 23.5054C0.0239289 23.5295 0.0197401 23.5537 0.0161457 23.578C0.0125512 23.6023 0.00955551 23.6266 0.00715852 23.6511C0.00476152 23.6756 0.00296615 23.7 0.00177237 23.7246C0.000578597 23.7491 -1.21295e-05 23.7737 1.88998e-07 23.7982C-1.21385e-05 23.8228 0.000578583 23.8473 0.00177235 23.8719C0.00296612 23.8964 0.00476147 23.9209 0.00715847 23.9454C0.00955547 23.9698 0.0125512 23.9942 0.0161456 24.0185C0.01974 24.0428 0.0239288 24.067 0.028712 24.0911C0.0334951 24.1151 0.038867 24.1391 0.0448274 24.163C0.0507877 24.1868 0.0573295 24.2104 0.0644526 24.234C0.0715758 24.2575 0.0792722 24.2808 0.0875409 24.3039C0.0958097 24.327 0.104641 24.3499 0.114036 24.3726C0.123431 24.3953 0.133377 24.4178 0.143875 24.44C0.154372 24.4622 0.165409 24.4841 0.176985 24.5058C0.18856 24.5275 0.20066 24.5488 0.213285 24.5699C0.225911 24.591 0.239046 24.6117 0.25269 24.6322C0.266335 24.6526 0.280473 24.6727 0.295104 24.6924C0.309735 24.7121 0.324841 24.7315 0.340424 24.7505C0.356006 24.7695 0.372045 24.7881 0.388541 24.8063C0.405037 24.8245 0.421969 24.8423 0.439339 24.8596C0.456708 24.877 0.474492 24.8939 0.492694 24.9104C0.510895 24.9269 0.529491 24.943 0.54848 24.9586C0.567469 24.9741 0.586833 24.9892 0.606562 25.0038C0.626292 25.0185 0.646373 25.0326 0.666802 25.0463C0.687225 25.0599 0.707977 25.073 0.729047 25.0857C0.750117 25.0983 0.771487 25.1104 0.793153 25.122C0.814819 25.1336 0.836756 25.1446 0.858961 25.1551C0.88117 25.1656 0.903623 25.1756 0.92632 25.1849C0.949017 25.1943 0.97193 25.2032 0.995062 25.2114C1.0182 25.2197 1.04151 25.2274 1.06502 25.2345C1.08853 25.2416 1.1122 25.2482 1.13603 25.2542C1.15986 25.2601 1.18382 25.2655 1.20792 25.2702C1.23201 25.275 1.25621 25.2792 1.28051 25.2828C1.30481 25.2864 1.32918 25.2894 1.35363 25.2918C1.37807 25.2942 1.40257 25.296 1.4271 25.2972C1.45163 25.2984 1.47618 25.299 1.50075 25.299L3.4275 25.299L2.4765 26.946C2.46415 26.9672 2.45234 26.9887 2.44105 27.0106C2.42976 27.0324 2.41902 27.0545 2.40882 27.0768C2.39862 27.0992 2.38897 27.1218 2.37988 27.1446C2.37079 27.1675 2.36227 27.1905 2.35432 27.2138C2.34637 27.237 2.33899 27.2605 2.33219 27.2841C2.32538 27.3077 2.31917 27.3314 2.31354 27.3554C2.30791 27.3793 2.30287 27.4033 2.29842 27.4275C2.29397 27.4517 2.29012 27.4759 2.28687 27.5003C2.28362 27.5246 2.28097 27.5491 2.27892 27.5735C2.27687 27.598 2.27542 27.6226 2.27458 27.6471C2.27373 27.6717 2.27349 27.6963 2.27385 27.7208C2.27422 27.7454 2.27519 27.7699 2.27677 27.7945C2.27834 27.819 2.28051 27.8434 2.28329 27.8679C2.28607 27.8923 2.28945 27.9166 2.29342 27.9409C2.2974 27.9651 2.30197 27.9893 2.30713 28.0133C2.31229 28.0373 2.31804 28.0612 2.32439 28.0849C2.33072 28.1087 2.33764 28.1322 2.34514 28.1556C2.35264 28.179 2.36071 28.2022 2.36935 28.2252C2.378 28.2482 2.3872 28.271 2.39696 28.2936C2.40673 28.3161 2.41703 28.3384 2.4279 28.3605C2.43876 28.3825 2.45016 28.4043 2.46209 28.4258C2.47402 28.4472 2.48647 28.4684 2.49944 28.4893C2.51242 28.5101 2.5259 28.5307 2.53988 28.5509C2.55386 28.5711 2.56834 28.591 2.5833 28.6105C2.59826 28.63 2.61369 28.649 2.62959 28.6678C2.6455 28.6865 2.66185 28.7049 2.67866 28.7228C2.69546 28.7407 2.7127 28.7583 2.73037 28.7753C2.74803 28.7924 2.76611 28.809 2.78459 28.8252C2.80308 28.8414 2.82195 28.8571 2.84121 28.8724C2.86047 28.8877 2.88009 28.9024 2.90008 28.9167C2.92006 28.931 2.94039 28.9448 2.96106 28.9581C2.98173 28.9714 3.0027 28.9842 3.024 28.9965C3.04527 29.0088 3.06683 29.0206 3.08869 29.0319C3.11055 29.0432 3.13267 29.0539 3.15505 29.0642C3.17743 29.0743 3.20005 29.0839 3.22291 29.093C3.24577 29.1021 3.26884 29.1106 3.29212 29.1186C3.31539 29.1265 3.33885 29.1339 3.36249 29.1407C3.38613 29.1475 3.40993 29.1537 3.43387 29.1593C3.45782 29.1649 3.48189 29.1699 3.50608 29.1744C3.53027 29.1788 3.55456 29.1826 3.57894 29.1858C3.60333 29.1891 3.62778 29.1917 3.65229 29.1938C3.6768 29.1958 3.70135 29.1972 3.72593 29.198C3.75051 29.1988 3.7751 29.1991 3.79969 29.1987C3.82429 29.1983 3.84885 29.1973 3.8734 29.1957C3.89794 29.1941 3.92243 29.1919 3.94687 29.1891C3.9713 29.1863 3.99565 29.1828 4.01992 29.1789C4.04418 29.1748 4.06834 29.1702 4.09238 29.165C4.11642 29.1598 4.14032 29.1541 4.16407 29.1477C4.18783 29.1413 4.21141 29.1343 4.23482 29.1268C4.25824 29.1192 4.28145 29.1111 4.30446 29.1025C4.32747 29.0938 4.35026 29.0846 4.37282 29.0748C4.39538 29.0649 4.41768 29.0546 4.43973 29.0437C4.46177 29.0328 4.48354 29.0214 4.50502 29.0094C4.52651 28.9974 4.54769 28.9849 4.56855 28.9719C4.58942 28.9589 4.60996 28.9453 4.63016 28.9313C4.65036 28.9173 4.67021 28.9028 4.6897 28.8878C4.70916 28.8728 4.72828 28.8573 4.74703 28.8413C4.76573 28.8254 4.78406 28.809 4.80197 28.7921C4.81987 28.7753 4.83736 28.758 4.85447 28.7403C4.87153 28.7226 4.88812 28.7044 4.9043 28.6859C4.92047 28.6674 4.93617 28.6485 4.95141 28.6292C4.96664 28.6098 4.98141 28.5902 4.9957 28.5701C5.00995 28.5501 5.02373 28.5297 5.037 28.5091C5.05027 28.4883 5.06302 28.4673 5.07525 28.446L6.8925 25.299L12.4072 25.299L9.2025 30.846C9.18675 30.8737 9.18825 30.9045 9.17325 30.9322C9.129 31.02 9.10725 31.1137 9.081 31.2105C9.05475 31.3102 9.027 31.4062 9.021 31.5075C9.0195 31.5382 9.00375 31.563 9.00375 31.5937C9.00375 31.6582 9.033 31.7122 9.0405 31.7752C9.05325 31.8795 9.06675 31.9807 9.102 32.0797C9.13425 32.172 9.18 32.253 9.228 32.3347C9.2745 32.4165 9.32025 32.4945 9.38325 32.5665C9.45225 32.6467 9.5325 32.7097 9.6195 32.7742C9.6675 32.811 9.69975 32.862 9.7545 32.8927C9.78075 32.907 9.81 32.907 9.83775 32.9205C9.927 32.9662 10.0237 32.991 10.122 33.0172C10.2232 33.0435 10.3185 33.0697 10.419 33.0757C10.4482 33.0787 10.473 33.093 10.5037 33.093L16.9087 33.093L14.151 37.8697L10.515 37.8667C10.4904 37.8668 10.4658 37.8675 10.4413 37.8688C10.4168 37.8701 10.3923 37.872 10.3678 37.8746C10.3434 37.8771 10.319 37.8802 10.2947 37.8839C10.2704 37.8875 10.2462 37.8918 10.2221 37.8967C10.198 37.9016 10.1741 37.907 10.1502 37.9131C10.1264 37.9191 10.1027 37.9257 10.0792 37.933C10.0558 37.9402 10.0324 37.948 10.0093 37.9563C9.9862 37.9646 9.96328 37.9735 9.94059 37.983C9.91791 37.9924 9.89545 38.0024 9.87323 38.013C9.85106 38.0235 9.82912 38.0346 9.80747 38.0463C9.78581 38.0579 9.76444 38.07 9.74339 38.0827C9.72234 38.0953 9.70158 38.1085 9.68114 38.1222C9.66075 38.1359 9.64064 38.15 9.62091 38.1647C9.60117 38.1793 9.58181 38.1945 9.56283 38.2101C9.54384 38.2257 9.52523 38.2418 9.50705 38.2583C9.48881 38.2748 9.47105 38.2917 9.45366 38.3091C9.43626 38.3265 9.41934 38.3443 9.4028 38.3625C9.3863 38.3807 9.37027 38.3993 9.35466 38.4183C9.33905 38.4373 9.32391 38.4566 9.30923 38.4764C9.29456 38.4961 9.28041 38.5162 9.26672 38.5366C9.25308 38.5571 9.23991 38.5778 9.2272 38.5989C9.21455 38.6199 9.20241 38.6413 9.19078 38.6629C9.17916 38.6846 9.16805 38.7065 9.1575 38.7287C9.14695 38.7509 9.13697 38.7734 9.1275 38.7961C9.11808 38.8188 9.10917 38.8416 9.10083 38.8648C9.09248 38.8879 9.0847 38.9112 9.07748 38.9347C9.07031 38.9582 9.0637 38.9819 9.05766 39.0057C9.05161 39.0295 9.04612 39.0535 9.04125 39.0776C9.03637 39.1016 9.03211 39.1258 9.02841 39.1502C9.0247 39.1744 9.02161 39.1988 9.01908 39.2233C9.01659 39.2478 9.01467 39.2722 9.01336 39.2968C9.01209 39.3213 9.01139 39.3459 9.01125 39.3705C9.0113 39.395 9.01195 39.4196 9.01322 39.4441C9.01448 39.4686 9.01636 39.4931 9.01884 39.5176C9.02133 39.542 9.02437 39.5664 9.02803 39.5907C9.03169 39.615 9.03595 39.6392 9.04078 39.6633C9.04561 39.6873 9.05105 39.7113 9.05709 39.7351C9.06314 39.7589 9.0697 39.7826 9.07687 39.8061C9.08405 39.8296 9.09183 39.8529 9.10017 39.876C9.10847 39.8991 9.11737 39.922 9.1268 39.9447C9.13626 39.9673 9.14625 39.9897 9.1568 40.012C9.16734 40.0341 9.17841 40.0561 9.19003 40.0777C9.20166 40.0993 9.2138 40.1207 9.2265 40.1418C9.23916 40.1628 9.25233 40.1835 9.26602 40.2039C9.2797 40.2243 9.29386 40.2444 9.30853 40.2641C9.3232 40.2838 9.33834 40.3031 9.35395 40.3221C9.36956 40.341 9.38564 40.3596 9.40219 40.3778C9.41873 40.396 9.43566 40.4138 9.45305 40.4311C9.47044 40.4485 9.48825 40.4653 9.50648 40.4818C9.52472 40.4983 9.54333 40.5143 9.56236 40.5299C9.58134 40.5454 9.60075 40.5605 9.62048 40.5751C9.64022 40.5897 9.66033 40.6038 9.68077 40.6174C9.70125 40.631 9.72202 40.6442 9.74306 40.6568C9.76416 40.6694 9.78553 40.6815 9.80723 40.6931C9.82894 40.7046 9.85087 40.7156 9.87309 40.7261C9.89531 40.7366 9.91776 40.7465 9.94045 40.7559C9.96319 40.7652 9.98611 40.7741 10.0092 40.7823C10.0324 40.7906 10.0557 40.7982 10.0792 40.8054C10.1027 40.8125 10.1264 40.819 10.1502 40.825C10.1741 40.8309 10.198 40.8363 10.2221 40.8411C10.2462 40.8458 10.2704 40.85 10.2947 40.8536C10.3191 40.8572 10.3434 40.8602 10.3679 40.8626C10.3923 40.8649 10.4168 40.8667 10.4414 40.8679C10.4659 40.8691 10.4904 40.8697 10.515 40.8697L12.417 40.8712L11.454 42.5385C11.4409 42.5598 11.4283 42.5813 11.4163 42.6033C11.4043 42.6252 11.3928 42.6474 11.3819 42.6699C11.3709 42.6924 11.3606 42.7151 11.3508 42.7381C11.341 42.7611 11.3318 42.7844 11.3232 42.8078C11.3146 42.8313 11.3065 42.8549 11.2991 42.8788C11.2916 42.9027 11.2848 42.9267 11.2786 42.951C11.2724 42.9752 11.2667 42.9995 11.2617 43.024C11.2567 43.0485 11.2522 43.0731 11.2485 43.0978C11.2447 43.1225 11.2415 43.1473 11.2389 43.1722C11.2364 43.1971 11.2345 43.222 11.2332 43.2469C11.2319 43.2719 11.2312 43.2969 11.2311 43.3219C11.2311 43.3469 11.2316 43.3719 11.2328 43.3969C11.234 43.4218 11.2358 43.4468 11.2382 43.4717C11.2407 43.4965 11.2437 43.5213 11.2474 43.5461C11.2511 43.5708 11.2554 43.5954 11.2603 43.6199C11.2652 43.6444 11.2707 43.6688 11.2769 43.6931C11.283 43.7173 11.2897 43.7414 11.297 43.7653C11.3044 43.7892 11.3123 43.8129 11.3208 43.8364C11.3293 43.8599 11.3384 43.8832 11.3481 43.9062C11.3578 43.9293 11.368 43.9521 11.3788 43.9746C11.3896 43.9971 11.401 44.0194 11.4129 44.0414C11.4248 44.0634 11.4373 44.085 11.4503 44.1064C11.4633 44.1277 11.4769 44.1487 11.4909 44.1694C11.505 44.1901 11.5196 44.2104 11.5346 44.2303C11.5497 44.2503 11.5652 44.2698 11.5813 44.289C11.5974 44.3081 11.6139 44.3269 11.6309 44.3453C11.6479 44.3636 11.6653 44.3815 11.6832 44.399C11.7011 44.4164 11.7194 44.4334 11.7381 44.45C11.7569 44.4666 11.776 44.4827 11.7955 44.4983C11.8151 44.5138 11.835 44.529 11.8553 44.5436C11.8756 44.5582 11.8962 44.5722 11.9172 44.5858C11.9382 44.5994 11.9595 44.6124 11.9812 44.625C12.0029 44.6374 12.0248 44.6494 12.047 44.6608C12.0693 44.6722 12.0918 44.6831 12.1146 44.6934C12.1374 44.7036 12.1604 44.7133 12.1837 44.7225C12.207 44.7316 12.2304 44.7401 12.2542 44.7481C12.2778 44.7561 12.3017 44.7634 12.3258 44.7702C12.3499 44.7769 12.3741 44.7831 12.3985 44.7887C12.4229 44.7942 12.4474 44.7992 12.472 44.8035C12.4966 44.8078 12.5213 44.8115 12.5461 44.8146C12.5709 44.8177 12.5958 44.8202 12.6207 44.8221C12.6457 44.8239 12.6706 44.8251 12.6956 44.8257C12.7206 44.8263 12.7456 44.8263 12.7706 44.8257C12.7956 44.825 12.8205 44.8238 12.8455 44.8219C12.8704 44.82 12.8953 44.8174 12.9201 44.8144C12.9449 44.8112 12.9696 44.8074 12.9942 44.8031C13.0188 44.7987 13.0433 44.7937 13.0677 44.7881C13.092 44.7825 13.1163 44.7763 13.1403 44.7695C13.1644 44.7627 13.1883 44.7553 13.212 44.7473C13.2356 44.7393 13.2591 44.7307 13.2824 44.7216C13.3056 44.7124 13.3286 44.7026 13.3514 44.6923C13.3742 44.682 13.3967 44.6711 13.4189 44.6597C13.4411 44.6482 13.4631 44.6362 13.4847 44.6237C13.5063 44.6111 13.5277 44.5981 13.5486 44.5845C13.5696 44.5709 13.5902 44.5567 13.6105 44.5421C13.6307 44.5275 13.6506 44.5123 13.6702 44.4967C13.6897 44.4811 13.7088 44.465 13.7275 44.4484C13.7462 44.4318 13.7645 44.4147 13.7823 44.3973C13.8002 44.3797 13.8176 44.3618 13.8345 44.3434C13.8515 44.3251 13.868 44.3063 13.884 44.2871C13.9 44.2679 13.9155 44.2483 13.9306 44.2284C13.9456 44.2084 13.9602 44.1881 13.9742 44.1674C13.9882 44.1467 14.0017 44.1256 14.0147 44.1043C14.0277 44.0829 14.0401 44.0612 14.052 44.0392L15.0142 42.3712L15.9652 44.0197C15.9775 44.041 15.9903 44.062 16.0036 44.0826C16.017 44.1033 16.0308 44.1236 16.0451 44.1436C16.0594 44.1636 16.0742 44.1832 16.0895 44.2024C16.1047 44.2217 16.1205 44.2406 16.1367 44.2591C16.1529 44.2775 16.1695 44.2956 16.1866 44.3133C16.2037 44.3309 16.2212 44.3481 16.2392 44.365C16.2571 44.3817 16.2755 44.3981 16.2942 44.414C16.3129 44.4299 16.332 44.4453 16.3515 44.4603C16.371 44.4752 16.3909 44.4897 16.4111 44.5037C16.4313 44.5177 16.4519 44.5311 16.4728 44.5441C16.4936 44.5571 16.5148 44.5695 16.5363 44.5815C16.5578 44.5934 16.5795 44.6048 16.6016 44.6156C16.6237 44.6265 16.646 44.6368 16.6685 44.6466C16.6911 44.6563 16.7138 44.6656 16.7369 44.6742C16.7599 44.6829 16.7831 44.6909 16.8065 44.6984C16.8299 44.7059 16.8534 44.7129 16.8772 44.7192C16.9009 44.7256 16.9248 44.7313 16.9488 44.7365C16.9729 44.7416 16.997 44.7462 17.0212 44.7502C17.0455 44.7542 17.0699 44.7576 17.0943 44.7604C17.1187 44.7632 17.1432 44.7654 17.1677 44.767C17.1922 44.7686 17.2168 44.7695 17.2413 44.7699C17.2659 44.7703 17.2905 44.7701 17.315 44.7693C17.3396 44.7684 17.3641 44.767 17.3886 44.7649C17.4131 44.7629 17.4375 44.7603 17.4619 44.7571C17.4862 44.7538 17.5105 44.7499 17.5347 44.7455C17.5589 44.7411 17.5829 44.7361 17.6069 44.7305C17.6308 44.7249 17.6546 44.7187 17.6782 44.7119C17.7018 44.7051 17.7253 44.6978 17.7485 44.6898C17.7718 44.6819 17.7949 44.6734 17.8177 44.6643C17.8405 44.6553 17.8631 44.6456 17.8855 44.6355C17.9078 44.6253 17.93 44.6146 17.9518 44.6034C17.9737 44.5921 17.9953 44.5803 18.0165 44.568C18.0378 44.5557 18.0589 44.543 18.0796 44.5297C18.1004 44.5165 18.1207 44.5027 18.1408 44.4884C18.1608 44.4741 18.1805 44.4594 18.1998 44.4441C18.2191 44.4288 18.2381 44.4131 18.2566 44.397C18.2751 44.3808 18.2932 44.3642 18.311 44.3471C18.3287 44.33 18.346 44.3126 18.3629 44.2946C18.3797 44.2767 18.3961 44.2584 18.4121 44.2397C18.4281 44.2209 18.4435 44.2018 18.4585 44.1823C18.4736 44.1628 18.4881 44.143 18.5021 44.1228C18.5161 44.1025 18.5297 44.082 18.5427 44.0611C18.5557 44.0402 18.5682 44.019 18.5802 43.9976C18.5922 43.976 18.6036 43.9542 18.6145 43.9322C18.6254 43.9101 18.6358 43.8878 18.6456 43.8653C18.6554 43.8427 18.6646 43.8198 18.6733 43.7969C18.6819 43.7738 18.69 43.7506 18.6976 43.7272C18.7051 43.7037 18.7121 43.6802 18.7185 43.6564C18.7248 43.6326 18.7305 43.6087 18.7357 43.5847C18.741 43.5606 18.7455 43.5364 18.7495 43.5122C18.7535 43.4879 18.7569 43.4635 18.7597 43.4391C18.7625 43.4146 18.7647 43.3901 18.7663 43.3655C18.7679 43.341 18.7689 43.3164 18.7693 43.2918C18.7696 43.2672 18.7694 43.2426 18.7686 43.218C18.7677 43.1934 18.7663 43.1688 18.7642 43.1443C18.7622 43.1198 18.7595 43.0953 18.7563 43.071C18.753 43.0466 18.7492 43.0223 18.7447 42.9981C18.7402 42.9739 18.7352 42.9498 18.7296 42.9258C18.7239 42.9019 18.7177 42.8781 18.7109 42.8545C18.7041 42.8308 18.6967 42.8074 18.6887 42.7841C18.6808 42.7608 18.6722 42.7377 18.6631 42.7149C18.654 42.692 18.6443 42.6694 18.6341 42.647C18.6239 42.6246 18.6131 42.6025 18.6018 42.5807C18.5905 42.5588 18.5786 42.5373 18.5662 42.516L16.7475 39.369L19.5052 34.5937L22.7085 40.1445C22.7242 40.1722 22.7527 40.1872 22.77 40.2135C22.8232 40.2937 22.8922 40.3582 22.9612 40.4287C23.0362 40.5037 23.106 40.575 23.193 40.632C23.2177 40.6485 23.2312 40.6747 23.2575 40.689C23.313 40.7212 23.3745 40.7242 23.4315 40.7475C23.5263 40.791 23.6245 40.8242 23.7262 40.8472C23.823 40.8645 23.9152 40.866 24.012 40.866C24.1057 40.866 24.195 40.8645 24.2887 40.8472C24.3915 40.827 24.4852 40.7902 24.582 40.749C24.6405 40.7242 24.7035 40.7212 24.759 40.689C24.7867 40.6732 24.8017 40.6462 24.8265 40.629C24.9082 40.575 24.9742 40.506 25.0447 40.4355C25.1197 40.362 25.1925 40.2922 25.2487 40.2052C25.2652 40.1805 25.2915 40.167 25.3057 40.1407L28.5075 34.5915L31.2667 39.3697L29.4465 42.5167C29.4343 42.538 29.4226 42.5596 29.4114 42.5816C29.4002 42.6034 29.3895 42.6256 29.3795 42.648C29.3694 42.6704 29.3598 42.6931 29.3509 42.7159C29.3419 42.7388 29.3334 42.7619 29.3256 42.7852C29.3177 42.8085 29.3105 42.832 29.3038 42.8556C29.2971 42.8792 29.2909 42.903 29.2853 42.927C29.2798 42.9509 29.2748 42.975 29.2705 42.9992C29.2661 43.0234 29.2624 43.0477 29.2592 43.0721C29.256 43.0964 29.2534 43.1208 29.2515 43.1454C29.2494 43.1698 29.2481 43.1944 29.2473 43.219C29.2465 43.2435 29.2463 43.2681 29.2467 43.2927C29.2471 43.3173 29.2482 43.3418 29.2498 43.3663C29.2514 43.3909 29.2536 43.4153 29.2565 43.4398C29.2593 43.4642 29.2627 43.4885 29.2667 43.5128C29.2707 43.537 29.2753 43.5611 29.2805 43.5852C29.2857 43.6092 29.2914 43.6331 29.2978 43.6569C29.3041 43.6806 29.3111 43.7042 29.3186 43.7276C29.3261 43.751 29.3342 43.7742 29.3428 43.7972C29.3515 43.8202 29.3607 43.843 29.3704 43.8656C29.3802 43.8881 29.3905 43.9104 29.4014 43.9325C29.4122 43.9545 29.4236 43.9763 29.4355 43.9978C29.4474 44.0193 29.4599 44.0405 29.4728 44.0614C29.4858 44.0823 29.4992 44.1028 29.5132 44.1231C29.5272 44.1433 29.5416 44.1632 29.5565 44.1828C29.5715 44.2023 29.5868 44.2214 29.6027 44.2402C29.6186 44.2589 29.6349 44.2773 29.6517 44.2953C29.6685 44.3133 29.6857 44.3308 29.7033 44.348C29.7209 44.3651 29.739 44.3818 29.7574 44.3981C29.7758 44.4143 29.7946 44.4301 29.8139 44.4454C29.8331 44.4607 29.8527 44.4756 29.8726 44.49C29.8925 44.5043 29.9128 44.5182 29.9334 44.5316C29.9541 44.545 29.975 44.5578 29.9962 44.5702C30.0176 44.5824 30.0391 44.5941 30.061 44.6053C30.0829 44.6165 30.105 44.6271 30.1274 44.6372C30.1498 44.6473 30.1725 44.6568 30.1953 44.6658C30.2182 44.6748 30.2412 44.6832 30.2645 44.6911C30.2878 44.6989 30.3112 44.7062 30.3349 44.7129C30.3585 44.7195 30.3823 44.7257 30.4062 44.7312C30.4302 44.7367 30.4542 44.7416 30.4784 44.746C30.5025 44.7503 30.5268 44.7541 30.5512 44.7573C30.5755 44.7604 30.6 44.763 30.6245 44.7649C30.6489 44.7669 30.6735 44.7683 30.698 44.769C30.7226 44.7698 30.7471 44.77 30.7717 44.7695C30.7962 44.769 30.8208 44.768 30.8453 44.7663C30.8698 44.7647 30.8942 44.7624 30.9187 44.7596C30.943 44.7567 30.9674 44.7533 30.9916 44.7492C31.0158 44.7452 31.0399 44.7406 31.0639 44.7354C31.0879 44.7301 31.1118 44.7243 31.1355 44.7179C31.1592 44.7115 31.1827 44.7045 31.2061 44.697C31.2295 44.6894 31.2527 44.6813 31.2757 44.6726C31.2986 44.6639 31.3214 44.6547 31.3439 44.6449C31.3665 44.6351 31.3887 44.6247 31.4107 44.6139C31.4327 44.603 31.4544 44.5916 31.4759 44.5796C31.4973 44.5676 31.5185 44.5551 31.5393 44.5421C31.5602 44.5291 31.5807 44.5156 31.6009 44.5016C31.6211 44.4876 31.6409 44.4731 31.6604 44.4582C31.6798 44.4432 31.6989 44.4277 31.7176 44.4118C31.7363 44.3959 31.7546 44.3795 31.7725 44.3628C31.7904 44.3459 31.8079 44.3287 31.825 44.311C31.842 44.2933 31.8587 44.2753 31.8749 44.2568C31.891 44.2383 31.9068 44.2194 31.922 44.2002C31.9372 44.1809 31.952 44.1613 31.9663 44.1413C31.9806 44.1213 31.9944 44.101 32.0077 44.0804C32.021 44.0597 32.0338 44.0388 32.046 44.0175L32.9977 42.3705L33.96 44.0385C33.9723 44.0598 33.9851 44.0807 33.9983 44.1014C34.0117 44.122 34.0255 44.1423 34.0398 44.1623C34.0541 44.1823 34.0688 44.2019 34.0841 44.2211C34.0994 44.2404 34.1151 44.2593 34.1313 44.2777C34.1474 44.2962 34.1641 44.3142 34.1812 44.332C34.1983 44.3496 34.2157 44.3668 34.2337 44.3836C34.2516 44.4004 34.2699 44.4168 34.2887 44.4327C34.3074 44.4485 34.3265 44.464 34.346 44.479C34.3655 44.4939 34.3853 44.5084 34.4055 44.5224C34.4257 44.5364 34.4462 44.5498 34.4671 44.5628C34.4879 44.5758 34.5091 44.5883 34.5306 44.6002C34.552 44.6121 34.5738 44.6236 34.5958 44.6344C34.6178 44.6453 34.6401 44.6556 34.6627 44.6654C34.6852 44.6751 34.708 44.6844 34.7309 44.693C34.754 44.7017 34.7771 44.7098 34.8005 44.7173C34.8239 44.7248 34.8474 44.7318 34.8712 44.7381C34.8949 44.7445 34.9188 44.7503 34.9428 44.7555C34.9668 44.7606 34.9909 44.7652 35.0152 44.7693C35.0394 44.7733 35.0637 44.7767 35.0881 44.7795C35.1126 44.7823 35.137 44.7845 35.1615 44.7861C35.186 44.7877 35.2106 44.7888 35.2351 44.7891C35.2597 44.7895 35.2843 44.7893 35.3088 44.7886C35.3333 44.7877 35.3579 44.7863 35.3824 44.7843C35.4068 44.7823 35.4313 44.7797 35.4556 44.7765C35.48 44.7733 35.5042 44.7695 35.5284 44.7651C35.5526 44.7607 35.5766 44.7557 35.6005 44.7502C35.6245 44.7446 35.6482 44.7384 35.6719 44.7317C35.6955 44.7249 35.7189 44.7176 35.7422 44.7097C35.7654 44.7018 35.7885 44.6933 35.8113 44.6843C35.8342 44.6753 35.8568 44.6657 35.8792 44.6556C35.9015 44.6454 35.9236 44.6347 35.9455 44.6235C35.9674 44.6123 35.9889 44.6005 36.0102 44.5882C36.0315 44.5759 36.0524 44.5631 36.0731 44.5498C36.0937 44.5365 36.114 44.5227 36.134 44.5084C36.154 44.4941 36.1736 44.4793 36.1928 44.4641C36.2121 44.4488 36.2309 44.433 36.2494 44.4168C36.2678 44.4006 36.2859 44.3839 36.3035 44.3669C36.3212 44.3498 36.3384 44.3322 36.3552 44.3143C36.372 44.2964 36.3883 44.2781 36.4042 44.2593C36.4201 44.2406 36.4355 44.2215 36.4505 44.202C36.4654 44.1825 36.4799 44.1626 36.4939 44.1424C36.5078 44.1222 36.5213 44.1017 36.5343 44.0808C36.5473 44.0599 36.5597 44.0388 36.5716 44.0173C36.5835 43.9959 36.5949 43.9741 36.6058 43.9521C36.6166 43.9301 36.6269 43.9077 36.6367 43.8852C36.6465 43.8626 36.6557 43.8399 36.6643 43.8169C36.673 43.7939 36.681 43.7707 36.6885 43.7473C36.696 43.7239 36.703 43.7004 36.7094 43.6766C36.7157 43.6529 36.7215 43.629 36.7266 43.605C36.7318 43.581 36.7364 43.5569 36.7404 43.5326C36.7444 43.5084 36.7477 43.484 36.7506 43.4597C36.7533 43.4352 36.7555 43.4108 36.7571 43.3863C36.7587 43.3617 36.7597 43.3372 36.7601 43.3127C36.7605 43.2881 36.7603 43.2635 36.7595 43.239C36.7587 43.2145 36.7572 43.1899 36.7552 43.1655C36.7532 43.141 36.7506 43.1165 36.7474 43.0922C36.7441 43.0678 36.7403 43.0436 36.7359 43.0194C36.7315 42.9952 36.7265 42.9712 36.7209 42.9473C36.7153 42.9234 36.7092 42.8996 36.7024 42.876C36.6956 42.8523 36.6883 42.8289 36.6804 42.8057C36.6725 42.7824 36.664 42.7593 36.6549 42.7365C36.6459 42.7136 36.6363 42.6911 36.6262 42.6687C36.616 42.6463 36.6053 42.6242 36.594 42.6024C36.5828 42.5805 36.5711 42.559 36.5587 42.5377L35.5957 40.8705L37.4992 40.872C37.5239 40.872 37.5484 40.8714 37.5729 40.8702C37.5975 40.869 37.622 40.8672 37.6465 40.8648C37.671 40.8624 37.6953 40.8594 37.7197 40.8558C37.744 40.8522 37.7682 40.848 37.7923 40.8432C37.8164 40.8384 37.8404 40.833 37.8642 40.8271C37.8881 40.8211 37.9117 40.8146 37.9352 40.8074C37.9588 40.8003 37.9821 40.7926 38.0053 40.7843C38.0284 40.776 38.0513 40.7672 38.074 40.7578C38.0968 40.7484 38.1192 40.7384 38.1414 40.7279C38.1637 40.7174 38.1856 40.7063 38.2072 40.6948C38.229 40.6832 38.2503 40.6711 38.2714 40.6584C38.2925 40.6458 38.3132 40.6326 38.3337 40.6189C38.3541 40.6053 38.3742 40.5911 38.394 40.5765C38.4137 40.5618 38.433 40.5467 38.452 40.5311C38.471 40.5155 38.4896 40.4995 38.5078 40.483C38.526 40.4664 38.5438 40.4494 38.5612 40.4321C38.5786 40.4147 38.5955 40.3969 38.612 40.3787C38.6285 40.3604 38.6445 40.3418 38.6601 40.3228C38.6757 40.3038 38.6908 40.2844 38.7054 40.2647C38.7201 40.2449 38.7342 40.2248 38.7478 40.2044C38.7615 40.1839 38.7746 40.1632 38.7872 40.1421C38.7998 40.121 38.8119 40.0996 38.8235 40.0779C38.8351 40.0562 38.8461 40.0343 38.8566 40.0121C38.8671 39.9898 38.877 39.9673 38.8864 39.9446C38.8958 39.9219 38.9046 39.8989 38.9129 39.8758C38.9211 39.8527 38.9288 39.8293 38.9359 39.8058C38.943 39.7823 38.9495 39.7586 38.9555 39.7347C38.9614 39.7108 38.9668 39.6869 38.9715 39.6628C38.9763 39.6386 38.9804 39.6144 38.9841 39.5901C38.9876 39.5658 38.9906 39.5414 38.993 39.517C38.9954 39.4925 38.9971 39.468 38.9983 39.4434C38.9995 39.4188 39 39.3943 39 39.3697C39 39.3451 38.9995 39.3206 38.9983 39.296C38.9971 39.2714 38.9954 39.2469 38.9931 39.2224C38.9907 39.1979 38.9877 39.1735 38.9842 39.1491C38.9805 39.1248 38.9764 39.1006 38.9716 39.0764C38.9669 39.0523 38.9615 39.0283 38.9556 39.0044C38.9496 38.9805 38.9431 38.9568 38.936 38.9333C38.9289 38.9097 38.9212 38.8864 38.9129 38.8632C38.9047 38.84 38.8958 38.8171 38.8865 38.7944C38.877 38.7716 38.8671 38.7491 38.8566 38.7269C38.8461 38.7047 38.8351 38.6827 38.8235 38.661C38.8119 38.6393 38.7998 38.6178 38.7872 38.5968C38.7746 38.5757 38.7614 38.5548 38.7478 38.5344C38.7341 38.5139 38.72 38.4938 38.7053 38.4741C38.6906 38.4543 38.6755 38.4349 38.6599 38.4159C38.6443 38.3969 38.6283 38.3782 38.6117 38.36C38.5952 38.3418 38.5783 38.324 38.5609 38.3066C38.5435 38.2892 38.5257 38.2722 38.5074 38.2557C38.4892 38.2392 38.4706 38.2231 38.4516 38.2076C38.4326 38.1919 38.4132 38.1768 38.3934 38.1622C38.3737 38.1475 38.3535 38.1334 38.3331 38.1197C38.3126 38.106 38.2919 38.0929 38.2707 38.0803C38.2496 38.0676 38.2282 38.0555 38.2065 38.044C38.1848 38.0324 38.1629 38.0214 38.1406 38.0109C38.1183 38.0004 38.0958 37.9904 38.0731 37.981C38.0504 37.9716 38.0274 37.9628 38.0042 37.9546C37.9811 37.9463 37.9577 37.9386 37.9342 37.9315C37.9106 37.9244 37.8869 37.9178 37.863 37.9119C37.8392 37.906 37.8152 37.9006 37.791 37.8958C37.7669 37.8911 37.7427 37.8869 37.7183 37.8834C37.694 37.8798 37.6696 37.8768 37.6451 37.8745C37.6206 37.8721 37.5961 37.8703 37.5715 37.8692C37.5469 37.868 37.5224 37.8674 37.4977 37.8675L33.8617 37.869L31.1055 33.0922L37.5135 33.0952C37.5457 33.0952 37.5735 33.0795 37.6042 33.0765C37.7025 33.0705 37.7932 33.0427 37.89 33.018C37.9882 32.9917 38.085 32.9685 38.1742 32.9227C38.202 32.9085 38.2327 32.9092 38.2605 32.8935C38.3175 32.8597 38.3527 32.8057 38.4037 32.766C38.4847 32.7045 38.5627 32.6445 38.6287 32.568C38.6947 32.4915 38.7427 32.4112 38.7915 32.3265C38.838 32.2455 38.8822 32.1667 38.913 32.079C38.9467 31.9792 38.9617 31.881 38.9745 31.7775C38.982 31.7145 39.0112 31.659 39.0112 31.593C39.0112 31.5607 38.9955 31.5345 38.994 31.5037C38.988 31.407 38.9602 31.3155 38.9355 31.2202C38.9134 31.1177 38.8801 31.0189 38.8357 30.924C38.8222 30.8977 38.8237 30.87 38.8095 30.8452L35.6062 25.2982L41.1232 25.2982L42.939 28.4482C42.9514 28.4694 42.9643 28.4904 42.9776 28.511C42.991 28.5316 43.0049 28.5518 43.0193 28.5717C43.0337 28.5917 43.0485 28.6112 43.0638 28.6304C43.0792 28.6496 43.095 28.6684 43.1112 28.6869C43.1275 28.7052 43.1442 28.7233 43.1613 28.7409C43.1784 28.7585 43.196 28.7756 43.214 28.7924C43.2319 28.8092 43.2503 28.8255 43.2691 28.8413C43.2878 28.8572 43.307 28.8726 43.3265 28.8875C43.3461 28.9024 43.3659 28.9168 43.3861 28.9308C43.4063 28.9447 43.4269 28.9582 43.4478 28.9711C43.4687 28.9841 43.4899 28.9965 43.5114 29.0084C43.5329 29.0202 43.5546 29.0316 43.5767 29.0425C43.5988 29.0533 43.621 29.0636 43.6436 29.0733C43.6661 29.0831 43.6889 29.0923 43.7119 29.1009C43.7349 29.1095 43.7581 29.1176 43.7815 29.1251C43.8049 29.1326 43.8284 29.1395 43.8522 29.1459C43.8759 29.1522 43.8998 29.158 43.9238 29.1632C43.9478 29.1683 43.972 29.1729 43.9962 29.1769C44.0205 29.1809 44.0448 29.1843 44.0692 29.1872C44.0936 29.19 44.118 29.1922 44.1426 29.1938C44.1671 29.1954 44.1916 29.1964 44.2162 29.1969C44.2408 29.1972 44.2653 29.1971 44.2898 29.1963C44.3144 29.1955 44.3389 29.1941 44.3634 29.1921C44.3879 29.1902 44.4123 29.1876 44.4367 29.1844C44.461 29.1812 44.4853 29.1774 44.5095 29.1731C44.5337 29.1687 44.5577 29.1638 44.5817 29.1582C44.6056 29.1527 44.6294 29.1465 44.653 29.1399C44.6767 29.1332 44.7001 29.1259 44.7234 29.118C44.7467 29.1101 44.7697 29.1018 44.7926 29.0928C44.8155 29.0838 44.8381 29.0742 44.8605 29.0642C44.8829 29.0541 44.9051 29.0435 44.927 29.0323C44.9489 29.0211 44.9704 29.0094 44.9917 28.9972C45.013 28.9849 45.0339 28.9721 45.0545 28.9587C45.0751 28.9453 45.0954 28.9315 45.1153 28.9172C45.1352 28.9028 45.1548 28.888 45.174 28.8727C45.1932 28.8574 45.212 28.8416 45.2304 28.8254C45.2489 28.8092 45.2669 28.7925 45.2845 28.7754C45.3021 28.7583 45.3193 28.7407 45.336 28.7228C45.3527 28.7049 45.369 28.6865 45.3849 28.6678C45.4007 28.649 45.4161 28.6299 45.431 28.6104C45.446 28.5909 45.4604 28.571 45.4743 28.5508C45.4882 28.5306 45.5017 28.5101 45.5146 28.4892C45.5275 28.4683 45.54 28.4471 45.5519 28.4257C45.5637 28.4042 45.5751 28.3825 45.5859 28.3604C45.5968 28.3383 45.607 28.316 45.6168 28.2935C45.6265 28.271 45.6357 28.2482 45.6443 28.2252C45.6529 28.2023 45.6609 28.1791 45.6684 28.1557C45.6759 28.1323 45.6828 28.1088 45.6892 28.085C45.6955 28.0613 45.7012 28.0375 45.7064 28.0135C45.7115 27.9895 45.7161 27.9653 45.72 27.9411C45.724 27.9168 45.7274 27.8925 45.7302 27.8681C45.7329 27.8438 45.7351 27.8193 45.7367 27.7948C45.7383 27.7703 45.7393 27.7458 45.7397 27.7212C45.7401 27.6967 45.7398 27.6722 45.739 27.6476C45.7382 27.6231 45.7367 27.5986 45.7347 27.5741C45.7327 27.5497 45.7301 27.5253 45.7269 27.5009C45.7237 27.4766 45.7199 27.4523 45.7154 27.4282C45.711 27.404 45.706 27.38 45.7005 27.3561C45.6949 27.3322 45.6887 27.3084 45.6819 27.2848C45.6752 27.2612 45.6679 27.2378 45.66 27.2146C45.652 27.1913 45.6436 27.1683 45.6345 27.1454C45.6255 27.1226 45.6159 27.1 45.6058 27.0776C45.5956 27.0553 45.5849 27.0332 45.5737 27.0114C45.5625 26.9895 45.5508 26.968 45.5385 26.9467L44.5875 25.2982L46.5142 25.2982C46.5388 25.2982 46.5634 25.2976 46.5879 25.2964C46.6124 25.2952 46.6369 25.2934 46.6614 25.2911C46.6858 25.2887 46.7102 25.2857 46.7345 25.2821C46.7588 25.2785 46.783 25.2743 46.8071 25.2695C46.8312 25.2647 46.8551 25.2593 46.8787 25.2534C46.9027 25.2474 46.9266 25.2409 46.95 25.2338C46.9734 25.2266 46.9969 25.2189 47.0198 25.2107C47.0428 25.2024 47.0658 25.1936 47.0887 25.1842C47.1112 25.1748 47.1337 25.1649 47.1562 25.1544C47.1783 25.1439 47.2003 25.1328 47.2219 25.1212C47.2434 25.1096 47.265 25.0976 47.2861 25.0849C47.3072 25.0723 47.3278 25.0592 47.348 25.0455C47.3686 25.0319 47.3887 25.0178 47.4084 25.0031C47.4281 24.9885 47.4473 24.9734 47.4666 24.9578C47.4858 24.9422 47.5041 24.9262 47.5223 24.9097C47.5406 24.8932 47.5584 24.8762 47.5758 24.8589C47.5931 24.8415 47.61 24.8237 47.6264 24.8055C47.6428 24.7873 47.6592 24.7687 47.6747 24.7497C47.6902 24.7307 47.7052 24.7113 47.7197 24.6917C47.7342 24.6719 47.7487 24.6519 47.7623 24.6314C47.7759 24.611 47.7891 24.5902 47.8017 24.5692C47.8144 24.5481 47.8261 24.5267 47.8378 24.5051C47.8495 24.4834 47.8603 24.4615 47.8711 24.4393C47.8819 24.4171 47.8917 24.3946 47.9011 24.3719C47.9105 24.3492 47.9194 24.3263 47.9273 24.3032C47.9358 24.28 47.9437 24.2567 47.9508 24.2332C47.9578 24.2097 47.9639 24.186 47.97 24.1622C47.9761 24.1383 47.9812 24.1144 47.9864 24.0903C47.9911 24.0662 47.9953 24.042 47.9991 24.0177C48.0023 23.9934 48.0056 23.969 48.008 23.9446C48.0103 23.9201 48.0117 23.8956 48.0131 23.8711C48.0145 23.8466 48.015 23.822 48.015 23.7975C48.015 23.7729 48.0145 23.7483 48.0131 23.7238C48.0122 23.6992 48.0103 23.6747 48.008 23.6502C48.0056 23.6258 48.0028 23.6013 47.9991 23.5771C47.9958 23.5527 47.9916 23.5285 47.9869 23.5044C47.9817 23.4803 47.9766 23.4563 47.9705 23.4325C47.9644 23.4086 47.9583 23.3849 47.9512 23.3614C47.9442 23.3379 47.9362 23.3145 47.9283 23.2914C47.9198 23.2682 47.9109 23.2452 47.9016 23.2226C47.8922 23.1998 47.8823 23.1773 47.872 23.1551C47.8612 23.1328 47.8505 23.1108 47.8387 23.0892C47.827 23.0675 47.8153 23.0461 47.8027 23.025C47.79 23.0039 47.7769 22.9831 47.7633 22.9627C47.7497 22.9422 47.7356 22.9221 47.7211 22.9023C47.7066 22.8826 47.6911 22.8632 47.6756 22.8442C47.6602 22.8251 47.6437 22.8065 47.6273 22.7883C47.6109 22.7701 47.5941 22.7523 47.5767 22.7349C47.5594 22.7175 47.5416 22.7005 47.5233 22.684C47.505 22.6675 47.4867 22.6514 47.4675 22.6358C47.4483 22.6202 47.4291 22.605 47.4094 22.5904C47.3897 22.5757 47.3695 22.5616 47.3494 22.5479C47.3287 22.5342 47.3081 22.5211 47.287 22.5084C47.2659 22.4958 47.2448 22.4836 47.2228 22.472C47.2012 22.4604 47.1792 22.4493 47.1572 22.4388C47.1352 22.4283 47.1127 22.4183 47.0897 22.4089C47.0667 22.3995 47.0437 22.3907 47.0208 22.3824C46.9978 22.3741 46.9744 22.3663 46.9509 22.3592C46.9275 22.3521 46.9041 22.3455 46.8802 22.3396C46.8562 22.3336 46.8321 22.3281 46.808 22.3233C46.7839 22.3186 46.7597 22.3144 46.7354 22.3107C46.711 22.3071 46.6867 22.3041 46.6622 22.3017C46.6378 22.2993 46.6132 22.2975 46.5887 22.2963C46.5642 22.2951 46.5396 22.2945 46.515 22.2945ZM34.911 17.5005L32.1435 22.2945L31.8052 22.2945L29.205 17.7915L29.3737 17.4997L34.911 17.5005ZM26.6055 28.2967L21.4095 28.2967L18.81 23.7952L21.4095 19.2937L26.6055 19.2937L29.205 23.7952L26.6055 28.2967ZM24.0075 11.205L26.775 16.0005L26.6062 16.293L21.4072 16.293L21.2385 15.999L24.0075 11.205ZM13.104 17.5005L18.642 17.5005L18.8107 17.7937L16.2105 22.2952L15.8707 22.2952L13.104 17.5005ZM13.104 30.0907L15.87 25.296L16.2097 25.296L18.81 29.7975L18.6412 30.0907L13.104 30.0907ZM24.0075 36.3855L21.24 31.5892L21.4087 31.2967L26.6077 31.2967L26.7765 31.5892L24.0075 36.3855ZM34.911 30.0907L29.373 30.0907L29.2042 29.799L31.8045 25.296L32.1427 25.296L34.911 30.0907Z"   fill="#FFFFFF" ></path></g><defs><clipPath id="clip-path-112_64"><path d="M0 48L48 48L48 0L0 0L0 48Z" fill="white"/></clipPath></defs></svg>